<svg width="208" height="134" viewBox="0 0 208 134" fill="none" xmlns="http://www.w3.org/2000/svg">
<path d="M118.723 38.6592C118.738 36.2396 117.701 30.2611 118.399 28.7423C126.837 23.0748 124.111 36.4607 125.272 40.4734C124.824 41.5068 125.228 43.644 125.441 44.7706C124.96 46.198 124.954 53.2397 124.988 55.1538C125.198 66.8402 123.302 81.9274 126.665 93.1796C129.862 85.9341 132.292 78.6455 133.979 70.8924C134.244 69.6772 134.409 67.4332 134.81 66.436C135.179 65.5132 135.922 64.7902 136.854 64.4465C137.722 64.1364 139.676 64.147 140.59 64.3999C141.424 65.3785 140.882 71.943 141.244 73.5676C142.063 77.2482 143.072 80.5059 145.039 83.7213C148.805 75.1307 150.97 68.3204 151.971 58.8848C152.149 57.2083 152.556 54.7032 152.433 53.1083C151.988 52.7071 151.34 52.7238 150.653 52.6049C151.338 52.547 151.563 52.5362 152.209 52.3111C152.631 51.629 152.292 50.5674 152.773 49.0235C152.778 46.0459 152.705 41.1248 152.958 38.2434C153.951 37.825 158.295 35.9024 158.927 37.3263C159.815 39.3265 158.814 49.7424 159.477 50.9192L159.749 50.9795C158.845 52.1047 159.239 52.6569 159.251 54.0413C159.258 54.8013 159.72 55.0268 159.791 55.4687L159.27 55.4996C159.059 56.0181 159.05 56.3379 159.06 56.8846C159.286 69.0388 157.278 83.2556 160.884 94.9424C163.037 85.056 162.004 75.3232 167.33 67.0589C168.621 66.782 171.313 66.0148 172.43 66.6481C172.276 68.1553 170.174 72.6509 169.625 74.6342C167.418 82.6127 170.775 99.685 157.788 98.3119C152.132 97.7139 152.731 83.71 152.625 79.3843C152.069 80.5731 151.584 81.5442 150.763 82.586C148.501 85.4564 144.588 87.7455 140.937 86.0817C138.944 85.1732 137.92 83.3042 136.813 81.5022C135.166 87.5325 131.579 98.5433 123.36 96.7565C118.071 95.6066 118.656 82.8024 118.635 78.6422C117.053 82.0043 113.12 87.2741 109.264 88.0224C94.8282 94.9734 92.6645 72.2639 99.9214 64.8387C103.182 60.2199 111.891 60.7758 112.402 67.5781C112.759 72.3243 111.424 75.7996 108.932 79.8106C108.147 81.0884 105.905 83.2422 105.935 84.7629C110.239 88.2032 114.583 73.6952 115.686 72.5047C118.686 63.8315 118.91 51.8185 118.886 42.7743C110.221 40.6451 110.299 43.0538 102.531 44.6557C101.841 44.7981 100.875 44.7923 100.268 44.3134C100.257 43.8122 100.806 43.1565 101.183 42.8639C106.121 39.0288 112.684 38.4805 118.723 38.6592ZM103.651 77.9072C105.261 75.0352 106.176 72.0724 105.387 68.6847C105.219 67.9666 104.913 67.0203 104.265 66.6422C102.932 68.6023 101.223 76.5033 103.238 77.9577L103.651 77.9072Z" fill="#C8A85D"/>
<path d="M38.602 82.2542C39.8238 84.9945 37.9766 96.5056 41.9285 96.4692C44.462 94.8622 46.41 81.6799 46.5559 78.5772C46.648 76.617 46.6539 68.4016 47.1648 67.4432C48.2983 66.3016 51.7018 65.6015 53.0576 66.4617C53.8762 67.3534 53.9703 71.9817 54.0688 73.4624C57.8911 71.3342 64.0824 68.902 67.3167 72.7409C72.1919 78.5277 71.2327 91.3291 66.0461 96.7631C63.5355 99.3935 60.1046 99.5697 56.9156 99.5342C58.9986 107.361 59.0056 118.349 59.5482 126.543C59.8901 131.709 56.7539 131.563 52.6663 131.476C51.9359 128.748 51.8402 125.457 51.392 122.645C49.9494 113.593 49.9056 104.719 49.3279 95.63C46.6407 99.684 42.3478 103.08 37.2294 100.966C35.5282 100.263 34.699 98.9776 33.5966 97.5709C31.8475 100.274 31.0089 101.292 28.4356 103.153C26.5519 103.372 23.1613 103.787 21.3847 103.363C14.1461 101.637 13.9771 92.0207 15.0581 86.284C16.6406 77.8856 22.5282 69.654 32.1243 71.7708C33.626 72.1021 34.347 72.5652 35.184 73.8449C36.0576 75.6373 36.2453 76.0901 36.6028 78.1089C36.8342 79.4157 36.2712 81.942 36.6278 82.6116C37.1511 82.4759 38.1163 82.1598 38.602 82.2542ZM26.4667 99.6801C27.6023 98.1913 32.2164 91.5303 31.5963 89.7433C30.1582 89.537 30.279 90.2065 29.637 89.4078C29.2933 86.399 32.9612 74.3842 26.6409 74.5305C21.1361 79.9858 18.6951 93.3667 24.3484 99.6032C24.7374 100.032 25.1643 100.335 25.7608 100.35C26.0782 100.127 26.2915 100.025 26.4667 99.6801ZM60.1858 96.2279C61.0403 95.8803 61.8609 94.2618 62.1727 93.3841C64.243 87.5564 65.045 78.3263 59.8942 73.9212C56.2784 78.0054 55.7082 87.6143 55.7284 92.9212C55.7307 93.5335 55.872 94.1827 56.2228 94.7012C57.5492 95.2007 58.876 95.6865 60.1858 96.2279Z" fill="#C8A85D"/>
<path d="M23.8549 17.5151C23.8908 14.9921 23.8784 12.5632 24.1892 10.049C24.5046 7.49779 25.8853 8.09527 27.8645 7.28578C28.9124 6.85721 28.9878 6.68192 29.8731 7.46895C30.579 9.21463 29.9964 11.2288 30.0888 13.0705C33.0895 12.627 37.1521 11.7616 39.6149 13.8123C45.0103 18.3049 39.6421 27.2431 36.4172 31.4921C34.8768 33.5215 33.53 34.7833 31.7475 36.3921C35.7857 36.3628 38.6143 36.7612 41.9478 39.9141C49.4681 47.0266 50.3106 66.2631 37.1841 67.4997C35.6232 67.6468 33.5201 66.7131 32.4935 65.539C28.599 61.6998 25.9585 46.3492 25.6792 40.9691C25.192 40.1263 25.1782 39.6182 25.056 38.6607L24.5397 38.2844C24.7687 38.1134 25.0612 37.9735 25.0424 37.7518C24.7802 34.6521 24.3223 22.3217 23.8227 20.2914C22.9943 19.8653 22.4187 19.8455 22.0078 19.2488C22.5904 18.5299 23.148 18.1026 23.8549 17.5151ZM40.0348 62.3582C43.6398 54.538 40.1878 42.0746 31.457 39.1461C32.9204 47.9063 33.7442 57.1982 38.8452 64.7679L40.0348 62.3582ZM30.8542 31.918L32.3628 29.6303C34.4841 26.4758 36.3949 22.435 35.7705 18.5602C35.4209 16.3913 33.7839 15.2341 31.6413 15.3439C30.6207 15.6998 30.6578 15.5068 30.1407 16.2724C29.9092 19.0142 30.6247 28.8753 30.8542 31.918Z" fill="#C8A85D"/>
<path d="M71.5878 86.9079C71.5954 83.9011 69.1126 65.1983 69.8173 64.1664C70.3922 63.3246 71.5394 62.9071 72.492 62.6997C73.3358 62.516 74.3639 62.3576 75.1219 62.8796C76.8272 64.0538 76.7955 68.391 77.1029 70.3413C77.4584 69.9184 77.8255 69.5053 78.2037 69.1026C80.2257 66.9707 83.6371 65.7875 86.5608 65.6127C96.9038 64.9946 95.3651 85.0573 90.8633 89.7581C90.8495 90.349 90.2583 91.2527 89.8888 91.694C87.7309 94.2716 84.3218 95.0356 81.2307 95.4404C81.611 99.7764 81.4722 104.748 81.501 109.19C81.5272 113.229 82.1794 118.961 80.2504 122.466C79.3883 124.033 74.4745 124.279 73.2046 123.341C72.4021 121.734 72.2654 92.1863 71.5878 86.9079ZM84.1295 90.8728C87.0476 86.4562 89.5343 73.1089 84.4828 69.8576C84.3567 69.7767 84.2232 69.7079 84.0843 69.6518C81.1155 74.1261 81.1849 81.2555 81.0797 86.4116C81.0366 88.5233 81.2953 91.2303 84.1295 90.8728Z" fill="#C8A85D"/>
<path d="M76.7372 25.9458C77.3372 25.89 77.6226 25.8183 78.1621 26.0725C79.7026 27.9323 80.0672 34.6113 80.1138 37.0889C82.4393 33.6687 88.762 26.7957 93.3605 28.0469C93.4648 28.1328 93.5909 28.2366 93.7389 28.3585C93.5695 29.6408 93.3828 31.7123 93.2962 32.9322C92.7865 40.1134 91.8113 49.6384 95.7139 56.0467C96.2584 56.9407 99.7664 57.587 100.225 58.4385C99.0188 60.6765 91.8634 60.8552 89.887 57.8122C85.6147 51.2341 86.4064 41.4683 87.3369 34.0804C84.1467 39.2969 81.5538 44.7343 80.5085 50.7726C80.2832 52.0739 79.9348 53.4198 79.5939 54.6993C77.7709 55.4231 76.0371 55.5711 74.1151 55.707C74.1173 54.8085 74.1375 53.8975 74.1958 53.0011C74.579 47.1127 74.3615 41.3199 74.0811 35.433C72.7126 36.4134 71.0617 37.4913 69.4833 38.0498C72.2706 47.9079 67.0754 62.1347 54.4377 58.1702C50.0267 53.9595 48.1613 47.8102 49.1906 41.7203C49.4827 39.9922 53.3959 39.2868 54.7856 39.9026C55.129 40.5647 54.7391 43.839 55.1192 45.6564C56.0444 50.0797 56.8108 53.5957 60.6831 56.388C64.1909 51.0412 64.3016 45.8792 63.638 39.6131C59.381 39.5478 53.2663 38.0158 51.3917 33.7635C50.9927 32.8413 50.9858 31.7964 51.3728 30.8691C53.0315 26.8087 59.9848 25.8257 63.6139 27.4501C66.8436 28.8956 67.9409 32.3608 69.139 35.3395C71.1634 34.5625 72.0553 29.6606 73.1129 27.8183C73.7621 26.6875 75.5812 26.2705 76.7372 25.9458ZM61.1273 32.9788C60.2721 31.6856 59.1355 30.1513 57.4358 30.3903L57.1055 30.9981C57.9533 32.0137 59.4682 34.1829 60.9754 33.6071L61.1273 32.9788Z" fill="#C8A85D"/>
<path d="M195.283 29.7871C196.27 29.6989 197.038 29.5378 197.788 30.134C197.749 31.1472 195.674 32.71 195.027 33.6904C188.405 43.7165 184.47 55.9935 182.029 67.7101C181.567 69.9285 181.389 72.3033 180.492 74.3969C180.174 75.1443 178.944 75.3722 178.242 75.5676C177.468 75.5916 175.745 75.7605 175.254 75.3635C174.881 73.498 175.584 70.6856 175.995 68.7637C178.087 59.0391 181.396 49.617 185.846 40.7206C187.982 36.3677 190.494 31.4235 195.283 29.7871Z" fill="#C8A85D"/>
<path d="M125.273 40.4734C128.301 41.1141 130.542 41.5483 133.657 41.8909C136.167 42.167 141.647 40.9155 143.085 42.1322C142.994 44.3193 141.021 44.5302 139.255 44.8394C135.731 45.4566 132.262 45.4751 128.705 45.1383C127.616 45.0319 126.528 44.9093 125.442 44.7706C125.229 43.644 124.825 41.5068 125.273 40.4734Z" fill="#C7A774"/>
<path d="M159.75 50.9795C161.84 51.6123 164.625 52.6201 166.743 52.8573C168.501 53.0543 172.209 52.2899 173.605 53.4011C173.81 54.7917 170.338 56.2473 169.29 56.3059C166.47 56.4637 162.483 56.2642 159.792 55.4687C159.721 55.0268 159.259 54.8013 159.252 54.0413C159.24 52.6569 158.846 52.1047 159.75 50.9795Z" fill="#C7A774"/>
<path d="M150.653 52.6049C146.299 52.1775 142.815 52.7185 138.527 52.7535C138.06 52.7573 137.869 52.3115 137.664 51.9695C138.63 48.2976 149.709 48.5728 152.773 49.0235C152.292 50.5674 152.631 51.629 152.209 52.3111C151.563 52.5362 151.338 52.547 150.653 52.6049Z" fill="#C7A774"/>
<path d="M180.002 80.3242C180.334 80.6733 180.405 80.6055 180.418 81.092C180.56 86.3425 178.484 88.2523 173.455 88.0486C173.133 87.6636 172.827 87.0926 172.845 86.5917C172.993 82.4826 176.494 80.5612 180.002 80.3242Z" fill="#C8A85D"/>
<path d="M139.097 55.8197C142.016 55.9317 142.615 57.5256 141.524 60.1085C140.813 61.7938 140.235 62.1823 138.548 62.738C135.167 62.3381 134.389 60.4661 136.155 57.3923C136.752 56.3527 137.928 56.0108 139.097 55.8197Z" fill="#C7A774"/>
<path d="M25.6807 40.9691C25.6161 41.0038 25.551 41.0376 25.4855 41.0706C24.357 41.6428 20.1363 43.2094 19.4688 41.6915C20.0633 40.123 23.0359 38.8928 24.5413 38.2845L25.0576 38.6607C25.1798 39.6182 25.1935 40.1263 25.6807 40.9691Z" fill="#C7A774"/>
<path d="M89.0434 117.559C89.0666 115.62 90.6434 116.055 92.3558 114.873C92.8464 114.542 93.4253 114.155 94.0445 113.788C95.5456 113.014 97.9127 111.058 100.064 109.719C100.827 109.239 101.569 108.834 102.266 108.502C103.651 107.841 105.022 107.332 106.215 106.914C107.111 106.608 108.069 106.241 109.111 105.835C109.222 105.792 109.348 105.905 109.399 105.885C109.876 105.7 110.625 105.23 111.11 105.048C111.146 105.034 111.183 105.02 111.221 105.006C112.444 104.514 114.504 103.798 115.671 103.646C116.181 103.571 116.698 103.476 116.97 103.788C117.153 103.765 117.181 103.422 117.225 103.394C117.226 103.394 117.226 103.394 117.227 103.395C117.29 103.356 117.41 103.362 117.531 103.38C117.617 103.415 117.715 103.463 117.741 103.449C117.748 103.445 117.649 103.223 117.788 103.266C117.801 103.269 117.825 103.43 117.934 103.407C117.959 103.403 118.281 103.069 118.394 103.024C118.75 102.885 119.798 102.805 120.334 102.654C120.415 102.632 120.438 102.527 120.523 102.502C120.568 102.489 120.662 102.57 120.676 102.566C120.735 102.546 120.88 102.021 121.026 102.939C121.29 102.807 121.129 102.534 121.083 102.341C121.383 102.23 121.647 102.611 121.611 102.143C122.349 101.975 123.123 101.805 123.959 101.648C125.129 101.422 126.173 101.326 127.147 101.271C127.141 101.196 127.135 101.121 127.129 101.046C127.695 101.3 127.836 100.783 128.16 101.2C128.336 101.093 128.511 100.988 128.684 100.883C130.641 100.919 132.475 100.939 133.556 100.796C133.589 100.785 133.698 100.792 133.732 100.781C135.793 100.572 137.908 100.415 139.876 100.324C139.903 100.317 139.988 100.327 140.016 100.321C140.291 100.314 140.572 100.31 140.852 100.307C141.018 100.305 141.067 100.465 141.344 100.463C141.652 100.462 142.084 100.273 142.487 100.272C142.841 100.271 143.364 100.42 143.758 100.442C143.847 100.446 143.911 100.345 143.921 100.345C143.98 100.349 143.984 100.509 144.041 100.513C144.111 100.518 144.192 100.399 144.27 100.406C144.564 100.431 144.886 100.389 144.923 100.391C145.102 100.406 145.143 100.563 145.158 100.564C145.358 100.583 145.282 100.442 145.332 100.45C145.588 100.492 145.775 100.845 146.125 100.505C146.116 100.636 146.106 100.767 146.097 100.898C146.368 100.971 146.188 100.623 146.244 100.56C146.269 100.536 146.845 100.577 146.893 100.584C147.049 100.606 147.053 100.78 147.066 100.782C147.098 100.788 147.493 100.589 147.693 100.741C147.93 100.921 147.652 101.276 147.711 101.342C147.721 101.354 147.97 101.317 148.004 101.428C148.041 101.547 147.825 101.545 147.828 101.595C147.83 101.629 148.19 101.875 148.122 102.041C148.065 102.207 147.582 101.995 147.479 102.073C147.461 102.086 147.494 102.291 147.479 102.299C147.417 102.327 146.302 102.336 146.249 102.302C146.307 102.208 146.367 102.115 146.424 102.021C146.348 102.012 146.268 102.003 146.19 101.994C146.301 101.918 146.411 101.843 146.52 101.768C146.358 100.999 145.862 101.781 145.845 102.165C145.837 102.342 146.138 102.798 145.86 103.065C145.902 103.11 145.945 103.156 145.987 103.201C146.075 103.126 146.162 103.051 146.251 102.976C146.192 102.929 146.133 102.882 146.074 102.835C146.095 102.781 146.117 102.728 146.138 102.674C146.303 102.588 146.467 102.502 146.63 102.416C146.715 102.455 146.697 102.613 146.756 102.643C147.481 103.025 147.006 102.538 147.481 102.607C147.55 102.692 147.617 102.776 147.684 102.861C147.66 102.511 147.868 102.73 148.124 102.579C148.093 102.692 148.063 102.805 148.033 102.919C148.4 102.858 149.146 103.428 148.944 102.803C149.028 102.856 149.112 102.909 149.196 102.963C149.267 102.86 149.338 102.758 149.41 102.656C149.508 102.667 149.605 102.679 149.703 102.691C149.704 102.746 149.704 102.801 149.705 102.857C149.627 102.857 149.549 102.857 149.471 102.858C149.529 103.026 149.588 103.195 149.647 103.363C149.705 103.335 149.762 103.307 149.82 103.279C149.578 103.12 149.897 102.859 149.975 102.636C150.18 102.554 150.309 102.843 150.378 102.856C150.409 102.862 150.79 102.352 150.641 102.912C150.837 102.844 151.03 102.776 151.226 102.707C151.303 102.75 151.38 102.793 151.455 102.836C151.291 103.097 151.769 103.411 151.417 103.52C151.153 103.601 151.087 103.357 150.962 103.359C150.849 103.36 150.79 103.525 150.667 103.532C149.842 103.579 149.166 103.55 148.381 103.479C148.227 103.464 148.086 103.545 147.981 103.534C147.863 103.521 148.01 103.315 147.86 103.365C147.703 103.419 147.67 103.587 147.628 103.591C147.603 103.592 147.52 103.441 147.444 103.442C147.133 103.442 146.68 103.59 146.635 103.589C146.586 103.587 145.709 103.453 145.666 103.429C145.643 103.415 145.687 102.856 145.496 103.453C145.435 103.464 145.375 103.475 145.315 103.487C145.325 103.375 145.334 103.263 145.343 103.152C144.988 103.576 145.107 103.339 144.765 103.373C143.94 103.457 142.719 103.369 141.812 103.416C141.614 103.426 141.53 103.561 141.295 103.572C141.069 103.583 140.484 103.19 140.616 103.741C140.33 103.466 140.174 103.63 140.059 103.715C140.045 103.719 140.003 103.713 139.99 103.717C139.902 103.78 139.827 103.802 139.717 103.59C139.689 103.666 139.662 103.742 139.635 103.818C139.351 103.506 139.285 103.791 138.987 103.841C138.861 103.862 138.997 103.515 138.753 103.905C138.702 103.878 138.652 103.852 138.603 103.825C138.611 103.742 138.619 103.659 138.627 103.576C138.349 103.654 138.323 103.612 138.369 103.92C138.23 103.869 138.089 103.818 137.949 103.768C137.936 103.87 137.924 103.972 137.911 104.074C137.954 104.185 139.026 104.091 139.998 103.977C140.011 103.974 140.05 103.979 140.062 103.976C140.759 103.909 141.41 103.83 141.59 103.789C142.099 104.015 143.12 103.721 143.526 103.774C143.693 103.795 143.761 104.024 144.001 104.051C144.242 104.077 144.536 103.867 144.666 103.859C145.089 103.831 147.085 103.871 145.728 104.161C145.768 104.273 145.808 104.385 145.847 104.497C146.382 104.113 146.193 104.349 146.638 104.387C146.827 104.403 147.274 104.152 147.25 104.661C146.903 104.756 146.529 104.595 146.224 104.603C146.192 104.604 145.837 104.837 145.648 104.775C145.48 104.717 145.592 104.232 145.233 104.778C144.957 104.247 144.804 104.73 144.734 104.782C144.612 104.871 144.595 104.609 144.471 104.579C144.336 104.546 144.245 104.72 144.227 104.721C144.041 104.726 143.082 104.755 143.036 104.649C143.075 104.603 143.115 104.556 143.152 104.509C142.9 104.436 142.954 104.704 142.889 104.736C142.84 104.736 142.791 104.735 142.742 104.734C142.761 104.678 142.78 104.623 142.799 104.567C142.508 104.581 142.731 104.773 142.312 104.77C142.049 104.769 141.768 104.558 141.745 104.574C141.737 104.579 141.821 104.722 141.714 104.742C141.529 104.775 141.227 104.774 141.186 104.579C141.097 104.608 141.107 104.798 141.095 104.803C141.051 104.82 140.326 104.881 140.074 104.904C140.065 104.906 140.038 104.903 140.029 104.905C140.001 104.908 139.978 104.91 139.962 104.912C139.53 104.957 139.038 104.934 138.567 104.984C138.519 104.989 138.545 104.865 138.496 104.871C138.415 104.88 138.02 105.088 137.962 105.104C137.813 105.143 137.412 105.084 137.355 105.142C137.347 105.15 137.482 105.31 137.334 105.368C137.164 105.432 137.248 105.206 137.238 105.204C136.889 105.143 136.682 105.308 136.445 105.349C136.37 105.363 136.221 105.202 136.113 105.258C136.1 105.264 136.133 105.417 136.122 105.425C135.965 105.515 135.794 105.237 135.721 105.222C135.545 105.187 135.651 105.393 135.643 105.395C135.526 105.409 135.365 105.342 135.188 105.364C134.786 105.412 134.398 105.46 134.069 105.491C134.059 105.494 134.028 105.492 134.019 105.495C133.715 105.532 133.389 105.554 133.012 105.566C132.915 105.569 132.793 105.425 132.778 105.425C132.732 105.429 132.753 105.604 132.617 105.605C132.333 105.607 132.066 105.624 131.777 105.629C131.719 105.629 131.69 105.467 131.645 105.465C131.497 105.459 130.994 105.898 130.972 105.368C130.684 105.845 130.472 105.445 130.227 105.457C129.647 105.482 128.725 105.614 128.119 105.596C127.992 105.592 127.922 105.461 127.85 105.459C127.723 105.452 126.994 105.596 126.951 105.581C126.871 105.549 126.849 104.947 126.512 105.513C126.284 105.58 126.278 105.334 126.228 105.327C125.828 105.282 125.544 105.89 125.529 105.382C125.24 105.525 125.039 105.723 124.853 105.716C124.768 105.711 124.685 105.654 124.594 105.514C124.646 105.738 124.483 105.915 124.232 105.885C124.366 105.499 124.31 105.27 124.736 105.182C124.791 105.171 124.852 105.162 124.922 105.155C124.932 105.154 124.946 105.32 124.957 105.319C125.053 105.31 125.23 105.19 125.391 105.171C125.549 105.152 125.481 105.279 125.544 105.266C125.6 105.254 125.572 105.098 125.655 105.082C125.923 105.031 126.152 104.955 126.303 104.933C126.398 104.919 126.52 105.044 126.593 105.035C126.874 104.999 127.452 104.834 127.8 104.824C127.873 104.822 127.854 104.98 128.012 104.982C128.03 104.982 128.086 104.815 128.221 104.772C128.357 104.73 128.467 104.805 128.553 104.783C128.626 104.765 128.587 104.622 128.737 104.605C128.868 104.587 130.253 104.642 130.321 104.666C130.428 104.696 130.483 104.898 130.547 104.872C130.558 104.866 130.572 104.669 130.61 104.654C131.255 104.405 132.638 104.643 133.276 104.598C133.504 104.583 133.721 104.563 133.924 104.537C133.939 104.532 133.985 104.535 134 104.531C135.21 104.399 136.495 104.25 137.763 104.16C137.789 104.125 137.816 104.09 137.843 104.054C137.683 104.06 137.529 104.065 137.371 104.07C137.366 103.978 137.361 103.885 137.356 103.793C137.144 103.788 137.179 104.005 137.192 104.137C137.109 104.084 137.033 104.031 136.948 103.979C136.895 104.304 136.361 104.114 136.084 104.13C135.909 104.139 135.697 104.274 135.605 104.27C135.401 104.262 135.396 104.063 135.379 104.061C135.352 104.058 135.081 104.25 134.875 104.258C134.575 104.27 134.5 103.97 134.138 104.258C134.082 104.244 134.028 104.233 133.978 104.224C133.962 104.229 133.91 104.226 133.894 104.231C133.523 104.173 133.093 104.264 132.647 104.305C132.732 104.019 132.291 104.304 132.077 104.306C130.795 104.318 129.087 104.213 127.566 104.227C127.37 104.229 127.207 104.077 127.097 104.093C127.037 104.102 127.03 104.299 126.945 104.282C126.93 104.279 126.901 104.097 126.741 104.087C126.344 104.054 125.392 104.504 125.062 104.215C124.894 104.254 124.722 104.295 124.551 104.339C123.45 104.631 122.429 104.955 121.444 105.273C121.396 105.208 121.348 105.144 121.3 105.079C121.183 105.507 120.289 105.519 119.903 105.64C119.313 105.827 118.619 106.098 118.126 106.234C118.016 106.262 117.91 106.289 117.81 106.313C117.654 106.35 117.502 106.273 117.354 106.31C117.29 106.327 117.243 106.482 117.178 106.499C116.44 106.686 115.405 106.833 114.675 107.084C113.908 107.344 113.171 107.62 112.446 107.921C111.687 108.236 110.928 108.555 110.158 108.89C109.209 109.302 108.313 109.699 107.432 110.055C105.665 110.765 103.731 111.601 101.874 112.746C99.7801 114.017 97.7134 115.582 95.9894 116.711C95.9337 116.747 95.8786 116.784 95.8239 116.82C95.7442 116.874 95.6554 116.739 95.5931 116.782C95.2116 117.031 94.5621 117.739 94.2529 118.018C93.9909 118.246 93.4572 118.415 93.5545 118.667C94.3796 118.289 95.1901 117.59 96.1827 117.002C96.3584 116.903 96.5369 116.801 96.7209 116.701C96.7841 116.666 96.8789 116.787 96.8878 116.785C97.0536 116.735 96.8467 116.621 97.0385 116.475C97.0996 116.429 98.0068 116.389 97.6516 116.042C97.9088 116.098 99.0609 115.407 99.2454 115.205C99.3003 115.143 99.1717 115.056 99.1806 115.041C99.2201 114.975 99.3578 115.123 99.4116 115.093C99.5542 115.01 99.8118 114.641 99.8798 114.598C100.035 114.496 100.585 114.33 100.77 114.167C100.938 114.018 100.793 113.863 100.946 113.744C101.067 113.65 101.021 113.886 101.337 113.751C101.493 113.684 101.931 113.269 102.054 113.196C102.076 113.183 102.099 113.173 102.125 113.165C102.255 113.121 102.426 113.119 102.575 113.024C102.833 112.859 103.382 112.485 103.639 112.312C103.654 112.302 103.621 112.137 103.663 112.119C103.75 112.084 103.814 112.275 103.886 112.262C103.958 112.243 105.038 111.709 105.222 111.636C105.35 111.581 105.39 111.434 105.461 111.404C105.517 111.382 105.588 111.533 105.645 111.51C105.662 111.503 105.754 111.306 105.902 111.248C106.044 111.192 106.62 111.106 106.68 111.084C106.719 111.069 106.632 110.976 106.749 110.933C106.856 110.893 106.982 111.009 107.042 110.988C107.183 110.938 107.289 110.755 107.434 110.698C107.524 110.663 107.598 110.643 107.657 110.636C107.854 110.613 107.889 110.725 107.909 110.723C107.979 110.714 107.941 110.541 107.961 110.529C108.044 110.481 108.249 110.364 108.325 110.326C108.421 110.278 108.525 110.415 108.631 110.372C108.709 110.339 108.806 110.124 108.983 110.042C109.382 109.855 109.862 109.616 110.276 109.445C110.399 109.394 110.478 109.525 110.517 109.513C110.723 109.447 110.767 109.243 110.825 109.221C111.235 109.062 112.067 108.996 112.454 108.857C112.511 108.837 112.625 108.774 112.771 108.693C113.053 108.539 113.437 108.337 113.712 108.247C113.761 108.231 113.758 108.359 113.805 108.322C113.917 108.232 113.82 108.01 113.888 107.992C113.922 107.984 114.041 108.086 114.137 108.065C114.636 107.958 114.934 107.749 115.157 107.684C116.182 107.386 117.235 107.14 118.275 106.951C119.164 106.794 120.146 106.546 121.088 106.302C121.291 106.249 121.505 106.041 121.851 106.092C121.88 106.162 121.91 106.232 121.939 106.302C121.93 106.228 121.922 106.153 121.913 106.079C122.255 105.945 122.365 105.817 122.754 105.812C122.788 105.811 122.971 106.118 122.923 105.69C123.366 105.894 123.087 105.645 123.353 105.547C123.62 105.45 123.912 105.476 124.189 105.433C124.37 105.546 123.835 106.037 123.797 106.046C123.733 106.06 123.615 105.871 123.551 105.876C123.36 105.889 123.227 106.097 123.139 105.924C122.956 106.178 123.222 106.006 123.237 106.188C123.063 106.156 122.89 106.125 122.716 106.093C122.793 106.706 121.745 106.161 121.926 106.596C121.835 106.524 121.744 106.451 121.653 106.379C121.517 107.023 121.238 106.672 120.81 106.608C120.857 106.673 120.905 106.738 120.952 106.802C120.952 106.835 120.647 107.042 120.684 106.701C120.45 107.2 120.283 106.521 120.109 107.09C119.944 107.2 119.977 106.889 119.659 106.977C119.471 107.028 119.275 107.236 119.07 107.296C119.023 107.309 118.962 107.149 118.921 107.159C118.879 107.169 118.897 107.336 118.847 107.352C118.743 107.385 118.583 107.301 118.523 107.326C118.485 107.341 118.448 107.422 118.387 107.487C118.352 107.519 118.311 107.547 118.26 107.565C117.697 107.772 117.826 107.531 117.718 107.482C117.601 107.432 117.594 107.717 117.391 107.734C117.37 107.735 117.38 107.555 117.318 107.578C117.267 107.596 117.286 107.784 117.125 107.861C117.059 107.887 116.027 108.216 115.872 108.272C115.633 108.349 115.048 108.373 114.8 108.461C114.705 108.494 114.653 108.672 114.552 108.707C114.218 108.822 113.683 109.012 113.267 109.175C113.192 109.205 113.102 109.226 113.004 109.247C112.629 109.319 112.14 109.346 112.081 109.633C111.608 109.876 111.387 109.693 111.35 109.705C111.246 109.739 111.269 109.914 111.145 109.975C110.175 110.456 109.014 110.943 107.929 111.34C107.198 111.608 106.469 111.883 105.843 112.159C104.736 112.644 103.623 113.2 102.541 113.863C100.492 115.099 98.5138 116.609 96.7165 117.804C96.2854 118.085 95.8758 118.397 95.5043 118.706C95.5442 118.771 95.5842 118.836 95.6244 118.9C95.9997 118.632 96.5049 118.373 96.9399 118.14C96.9865 118.116 97.0319 118.091 97.0757 118.066C97.5739 117.78 98.1127 117.013 98.774 117.175C98.6527 117.316 98.3013 117.323 98.4583 117.536C98.7298 117.367 99.0034 117.196 99.2796 117.025C99.2014 116.931 99.1232 116.836 99.045 116.742C99.3026 116.518 99.6038 116.34 99.8782 116.13C99.9261 116.094 99.8283 116.027 99.8713 115.997C99.9197 115.963 99.9505 116.079 99.96 116.073C100.082 115.991 100.055 115.872 100.071 115.863C100.112 115.84 100.143 115.951 100.27 115.901C100.507 115.81 100.495 115.471 100.713 115.904C100.779 115.86 100.846 115.815 100.913 115.771C100.858 115.651 100.803 115.53 100.748 115.41C101.448 115.582 101.14 114.68 101.765 115.154C101.78 115.012 101.798 114.867 101.814 114.725C101.926 114.809 102.039 114.894 102.151 114.978C102.1 114.877 102.049 114.777 101.998 114.676C102.27 114.566 102.511 114.386 102.75 114.211C102.92 114.087 103.089 113.968 103.263 113.876C103.562 113.719 103.655 113.72 103.914 113.574C104.491 113.256 104.013 113.75 104.604 113.721C104.517 113.611 104.431 113.5 104.344 113.39C104.402 113.304 104.461 113.219 104.52 113.133C104.626 113.207 104.731 113.28 104.836 113.355C104.836 112.709 105.202 113.058 105.234 113.043C105.261 113.03 105.212 112.665 105.632 112.804C105.313 112.421 105.859 112.7 105.887 112.692C105.914 112.682 106.213 112.437 106.354 112.383C106.465 112.34 106.736 112.34 106.896 112.27C107.037 112.208 106.961 112.063 106.971 112.058C107.142 111.974 107.079 112.136 107.208 112.091C107.337 112.046 107.384 111.879 107.416 111.88C107.432 111.88 107.442 112.039 107.509 112.028C107.673 112.002 107.893 111.807 108.075 111.716C108.096 111.705 108.116 111.696 108.136 111.689C108.201 111.665 108.329 111.753 108.403 111.728C108.516 111.69 108.504 111.51 108.57 111.489C108.592 111.483 108.833 111.671 108.996 111.56C109.027 111.539 108.912 110.983 109.346 111.659C109.314 111.552 109.282 111.445 109.249 111.338C109.737 110.836 110.259 111.595 110.212 110.743C110.685 110.638 110.507 111.054 110.574 111.078C110.617 111.092 110.727 110.952 110.744 110.95C110.776 110.946 110.81 111.041 110.841 111.027C111.394 110.769 111.071 110.702 111.201 110.515C111.512 110.071 112.094 110.512 111.281 110.653C111.303 110.705 111.325 110.756 111.347 110.808C111.507 110.681 111.979 110.506 111.936 110.833C111.903 111.091 110.755 111.425 111.496 111.448C111.664 111.454 111.655 111.229 112.053 111.487C112.222 111.438 112.044 110.959 112.343 111.054C112.237 110.905 112.131 110.757 112.025 110.609C112.232 110.268 112.723 110.397 112.914 110.209C112.977 110.145 112.93 109.243 113.194 110.053C113.215 110.033 113.259 110.012 113.316 109.991C113.558 109.899 114.028 109.807 114.103 109.713C114.125 109.686 114.001 109.246 114.484 109.235C114.533 109.278 114.583 109.32 114.632 109.362C114.301 109.659 115.041 109.567 115.001 110.038C114.874 109.878 114.529 109.88 114.446 109.808C114.304 109.684 114.479 109.387 114.179 109.564C114.237 110.309 114.688 109.785 114.838 110.456C115.136 110.008 115.282 110.28 115.378 110.26C115.791 110.171 116.02 110.021 116.421 109.981C116.474 109.817 115.725 109.841 115.658 109.929C115.819 109.355 115.264 109.513 115.133 109.873C115.064 109.738 114.995 109.604 114.926 109.469C115.253 109.44 115.559 109.381 115.822 109.168C115.859 109.216 115.895 109.263 115.932 109.31C115.89 109.412 115.849 109.513 115.808 109.615C116.096 109.668 115.818 109.297 116.261 109.561C116.222 109.396 116.183 109.232 116.144 109.067C116.482 109.023 116.819 108.985 117.156 108.954C117.237 108.58 117.901 108.548 117.886 109.002C118.143 108.973 117.779 108.82 117.992 108.66C118.085 108.591 118.285 108.533 118.36 108.638C118.427 109.049 118.14 109.167 118.117 109.466C118.152 109.503 118.456 109.388 118.769 109.316C119.112 109.237 119.468 109.188 119.465 109.456C119.586 109.487 119.478 109.255 119.655 109.146C120.147 108.842 121.109 109.097 121.379 108.377C120.78 108.181 120.727 108.575 120.342 108.692C120.096 108.775 118.601 109.186 118.845 108.675C118.803 108.741 118.759 108.808 118.717 108.874C118.698 108.846 118.678 108.819 118.659 108.791C118.594 108.702 118.528 108.614 118.461 108.526C118.506 108.511 118.551 108.497 118.595 108.482C118.702 108.446 118.81 108.408 118.919 108.369C118.984 108.489 119.05 108.608 119.117 108.727C119.113 108.632 119.109 108.537 119.105 108.442C119.165 108.409 119.226 108.375 119.287 108.342C119.295 108.455 119.303 108.569 119.31 108.682C119.416 108.677 119.523 108.671 119.629 108.664C119.565 108.526 119.502 108.386 119.44 108.247C119.904 108.093 119.766 108.224 120.102 108.427C120.308 108.403 119.9 108.212 120.301 108.031C120.769 107.819 120.566 108.348 121.178 108.081C121.167 108.006 121.157 107.931 121.147 107.857C121.307 107.891 121.467 107.925 121.628 107.958C121.584 107.874 121.541 107.789 121.498 107.704C121.798 107.66 122.155 107.378 122.348 107.705C122.005 107.615 122.176 108.23 122.283 108.322C122.501 108.505 124.77 107.68 125.261 107.57C125.264 107.569 125.267 107.569 125.269 107.568C125.875 107.417 126.358 107.552 126.877 107.173C126.562 107.007 125.705 107.211 125.2 107.294C125.053 107.315 124.936 107.321 124.87 107.294C124.842 107.283 124.716 106.712 124.708 107.389C124.177 107.399 123.625 107.731 123.003 107.877C122.978 107.71 122.954 107.542 122.93 107.374C123.402 107.619 123.562 106.767 123.675 107.413C123.751 107.393 123.827 107.374 123.904 107.355C123.877 107.245 123.849 107.136 123.822 107.027C123.938 106.998 124.055 106.969 124.172 106.94C124.198 107.05 124.225 107.159 124.252 107.268C124.348 107.245 124.444 107.222 124.541 107.199C124.525 107.087 124.509 106.975 124.494 106.864C124.638 106.93 124.871 106.822 125.076 106.731C125.378 106.601 125.612 106.511 125.419 106.945C125.562 106.917 125.706 106.89 125.849 106.866C125.834 106.785 125.82 106.704 125.806 106.623C125.866 106.601 125.927 106.58 125.988 106.559C125.979 106.636 125.97 106.713 125.962 106.79C126.226 106.612 126.545 106.965 126.695 106.686C126.567 106.645 126.437 106.606 126.307 106.567C126.556 106.639 126.961 106.369 127 106.365C127.119 106.351 127.198 106.51 127.325 106.506C127.44 106.503 127.412 106.377 127.434 106.379C128.065 106.455 127.876 107.168 128.104 106.328C128.142 106.438 128.18 106.548 128.217 106.657C128.251 106.562 128.286 106.466 128.32 106.37C128.501 106.367 128.682 106.366 128.862 106.366C128.795 106.229 128.727 106.092 128.659 105.956C128.928 105.879 129.067 106.154 129.093 106.159C129.168 106.172 129.194 105.995 129.217 105.993C130.312 105.967 129.655 106.147 130.215 106.791C130.399 106.526 130.198 106.271 130.162 106.008C130.423 106.124 130.5 106.049 130.769 106.057C130.839 106.059 130.918 106.199 130.962 106.2C131 106.201 131.115 106.047 131.206 106.044C131.357 106.039 131.561 106.124 131.767 106.116C131.939 106.11 132.457 105.988 132.812 105.97C132.963 105.964 132.934 106.092 132.974 106.09C132.99 106.089 133.1 105.932 133.196 105.926C133.487 105.909 133.776 105.901 134.058 105.889C134.065 105.887 134.089 105.888 134.097 105.886C134.592 105.874 135.165 105.868 135.69 105.836C136.281 105.801 136.876 105.651 137.466 105.638C137.591 105.635 137.53 105.749 137.585 105.751C137.605 105.751 137.619 105.556 137.815 105.626C137.887 105.651 137.811 105.791 137.881 105.794C137.916 105.796 137.921 105.625 138.115 105.579C138.468 105.494 138.669 105.714 138.699 105.706C138.758 105.691 138.735 105.55 138.815 105.542C139.199 105.503 139.529 105.468 139.869 105.445C139.899 105.442 139.962 105.439 140.047 105.434C140.053 105.432 140.074 105.434 140.08 105.433C140.443 105.419 141.187 105.396 141.241 105.417C141.379 105.472 141.253 105.767 141.427 105.756C141.475 105.681 141.524 105.606 141.573 105.531C141.493 105.475 141.415 105.419 141.338 105.363C141.551 105.456 141.797 105.32 141.954 105.324C141.983 105.325 142.256 105.456 142.392 105.441C142.334 105.496 142.276 105.552 142.219 105.608C142.24 105.655 142.26 105.702 142.281 105.749C142.556 105.676 142.845 105.676 143.131 105.684C143.232 105.687 143.198 105.802 143.301 105.805C143.905 105.826 143.746 105.35 144.329 106.242C144.136 106.162 143.423 106.28 143.32 106.25C143.249 106.23 142.964 105.475 143.072 106.251C142.493 106.251 142.996 105.82 142.455 105.917C142.466 106.011 142.477 106.106 142.489 106.201C142.3 106.262 142.166 106.311 142.048 106.144C142.011 106.604 141.376 106.34 141.022 106.375C140.728 106.403 140.403 106.456 140.094 106.5C140.092 106.501 140.085 106.5 140.083 106.501C139.856 106.537 139.644 106.568 139.436 106.583C139.268 106.596 139.158 106.42 139.137 106.421C139.105 106.423 139.023 106.584 138.961 106.587C138.722 106.6 137.997 106.362 137.834 106.807C138.587 106.776 139.334 106.749 140.09 106.724C140.745 106.716 141.399 106.71 142.051 106.705C141.876 106.491 143.294 106.46 143.364 106.471C143.43 106.48 143.375 106.632 143.395 106.641C143.543 106.705 143.67 106.485 143.715 106.485C143.751 106.484 143.822 106.587 143.95 106.584C143.973 106.584 143.979 106.475 144.004 106.474C144.173 106.474 144.332 106.474 144.499 106.473C144.509 106.474 144.552 106.633 144.595 106.633C144.637 106.633 144.678 106.474 144.689 106.473C144.82 106.474 145.048 106.576 145.176 106.577C145.22 106.577 145.189 106.461 145.239 106.461C145.388 106.464 145.339 106.692 145.525 106.632C145.588 106.612 145.583 106.438 145.704 106.461C145.789 106.477 145.781 106.787 145.795 106.798C145.813 106.812 146.103 106.566 146.2 106.769C145.992 107.306 146.431 106.796 146.409 106.57C146.524 106.627 146.639 106.683 146.756 106.74C146.795 106.683 146.835 106.625 146.875 106.568C147.342 106.825 147.627 106.669 148.089 106.748C148.113 106.752 148.498 106.878 148.48 106.959C148.249 107.098 148.017 107.105 147.868 106.849C147.625 107.338 147.621 106.948 147.225 107.014C147.093 107.036 147.084 107.169 147.069 107.171C146.553 107.238 145.734 107.297 145.385 106.911C145.288 107.016 145.636 107.057 145.501 107.134C145.429 107.177 143.65 107.308 144.215 106.859C144.158 106.872 144.097 106.884 144.038 106.897C143.979 107.319 143.687 107.224 143.718 106.804C143.691 106.89 143.664 106.976 143.637 107.062C143.581 107.135 143.516 107.174 143.424 107.198C143.075 107.287 141 107.156 140.889 107.219C140.888 107.318 140.886 107.418 140.885 107.518C141.799 107.621 142.689 107.368 143.692 107.648C143.663 107.555 143.634 107.461 143.604 107.368C144.001 107.497 144.402 107.626 144.803 107.755C144.378 107.926 143.713 108.071 143.265 107.934C143.187 107.91 143.244 107.779 143.226 107.764C143.179 107.723 143.129 107.949 142.958 107.972C142.789 107.995 142.359 107.838 142.321 107.842C142.248 107.852 142.043 108.112 141.916 108.11C141.748 108.107 141.859 107.946 141.825 107.943C141.689 107.928 141.558 108.009 141.45 107.998C141.292 107.981 140.945 107.703 140.838 108.118C140.955 108.135 141.068 108.153 141.186 108.171C140.802 108.266 140.455 108.103 140.114 108.063L140.135 108.062C139.914 108.042 139.701 108.068 139.467 108.232C139.345 108.738 139.851 108.652 139.429 108.881C139.506 108.871 139.584 108.861 139.664 108.851C139.679 108.746 139.694 108.64 139.709 108.535C139.847 108.605 139.981 108.675 140.123 108.745C140.08 108.653 140.038 108.561 139.996 108.469C140.046 108.46 140.097 108.451 140.147 108.442L140.119 108.443C140.542 108.375 140.952 108.341 141.103 108.79C141.111 108.668 141.12 108.547 141.129 108.425C141.576 108.569 142.244 108.049 142.124 108.726C142.145 108.69 142.166 108.654 142.188 108.618C142.455 108.754 142.34 108.475 142.441 108.443C142.471 108.434 142.995 108.575 142.765 108.777C143.277 108.927 143.118 108.297 143.257 108.268C143.587 108.579 144.175 108.107 143.929 108.603C143.978 108.621 144.027 108.639 144.076 108.658C144.238 108.268 144.393 108.707 144.57 108.854C144.629 108.862 144.69 108.871 144.747 108.879C144.786 108.748 144.825 108.617 144.863 108.486C145.422 109.107 145.239 107.404 145.497 108.835C145.458 108.92 145.419 109.006 145.38 109.092C145.288 109.133 145.194 109.174 145.1 109.215C145.477 109.251 145.855 109.288 146.233 109.324C146.713 109.724 146.984 109.288 147.519 109.604C147.569 109.566 147.618 109.528 147.668 109.49C147.618 109.814 147.425 109.767 147.784 109.911C147.815 110.14 147.575 110.171 147.461 109.995C147.434 109.952 147.663 109.776 147.406 109.771C147.232 109.766 147.547 110.041 147.028 109.94C147.047 109.996 147.066 110.052 147.086 110.108C147.029 110.107 146.974 110.105 146.917 110.104C146.866 109.974 146.815 109.845 146.764 109.715C146.635 109.903 146.566 110.165 146.269 110.11C146.35 110.029 146.239 109.769 146.093 109.774C146.094 109.868 146.094 109.961 146.094 110.055C145.743 110.117 145.864 109.841 145.57 110.057C145.54 109.982 145.51 109.908 145.481 109.834C145.325 110.141 144.733 110.352 144.84 109.892C144.68 110.34 144.327 110.139 144.2 109.782C144.191 109.875 144.182 109.968 144.172 110.061C144.103 110.081 144.033 110.1 143.965 110.119C143.926 110.063 143.888 110.007 143.849 109.951C143.801 110.007 143.753 110.064 143.705 110.12C143.676 110.027 143.647 109.934 143.616 109.841C143.538 109.953 143.46 110.065 143.382 110.178C143.334 110.103 143.286 110.029 143.239 109.955C143.238 110.15 142.76 110.196 142.63 110.069C142.59 110.126 142.551 110.183 142.511 110.24C142.491 110.147 142.471 110.054 142.452 109.962C142.423 110.036 142.394 110.111 142.365 110.185C142.297 110.111 142.232 110.037 142.163 109.964C141.888 110.421 141.879 110.022 141.816 110.025C141.699 110.031 141.308 110.319 141.24 110.305C141.173 110.291 141.139 110.128 141.086 110.113C140.205 109.866 140.573 110.3 140.396 110.372C140.301 110.411 140.233 110.259 140.151 110.277C140.148 110.278 140.145 110.278 140.142 110.279L140.209 110.278C140.038 110.318 139.361 110.534 139.314 110.517C139.252 110.49 139.369 109.768 139.179 109.96C139.189 110.345 138.749 109.972 138.967 110.502C138.793 110.461 138.615 110.421 138.444 110.38C138.483 110.836 138.255 110.551 138.025 110.585C137.695 110.634 136.982 110.967 136.983 110.498C136.911 110.609 136.839 110.721 136.766 110.832C136.228 110.711 135.726 110.894 135.227 110.935C134.993 110.955 134.769 110.974 134.462 110.994L134.56 110.985C132.875 111.127 131.423 111.028 130.116 110.998C130.042 110.995 130.047 110.842 129.994 110.84C129.712 110.832 129.006 110.97 128.638 110.96C128.519 110.957 128.452 110.812 128.414 110.808C128.285 110.793 128.33 110.987 128.272 110.986C128.18 110.982 127.689 110.841 127.527 110.841C127.447 110.84 127.372 111.006 127.276 110.969C127.267 110.966 127.263 110.804 127.256 110.802C127.087 110.803 127.204 110.929 127.148 110.928C126.768 110.927 126.385 110.984 126.022 111.035C125.996 111.039 125.969 111.043 125.942 111.047C125.827 111.063 125.627 110.993 125.525 111.006C125.487 111.011 125.582 111.114 125.45 111.135C125.404 111.143 125.352 110.991 125.298 110.994C125.068 111.005 125.118 111.519 124.828 111.168C124.467 111.286 123.85 111.586 123.504 111.683C123.422 111.706 123.357 111.626 123.279 111.649C123.224 111.665 123.164 111.832 123.077 111.858C122.99 111.883 122.816 111.787 122.647 111.839C122.47 111.892 122.267 112.033 122.226 112.043C122.177 112.057 122.108 111.894 122.059 111.909C121.912 111.955 121.553 112.23 121.359 112.3C121.151 112.375 121 112.326 120.926 112.346C120.859 112.366 120.814 112.53 120.783 112.539C120.735 112.554 120.681 112.389 120.619 112.406C120.517 112.434 120.436 112.566 120.28 112.606C120.026 112.672 119.765 112.735 119.494 112.794C117.971 113.13 116.494 113.553 115.039 114.089C114.464 114.303 113.889 114.517 113.312 114.732C113.044 114.831 112.943 115.006 112.53 115.124C112.362 115.171 112.359 114.979 112.248 115.063C112.198 115.1 112.267 115.223 112.2 115.259C111.901 115.419 111.482 115.455 111.345 115.515C111.291 115.538 111.289 115.711 111.177 115.761C110.773 115.938 110.317 116.117 109.848 116.293C109.385 116.466 108.929 116.639 108.515 116.825C108.088 117.015 107.49 117.362 107.039 117.588C106.45 117.882 105.864 118.188 105.32 118.51C104.629 118.919 103.967 119.331 103.372 119.737C102.206 120.524 101.118 121.436 99.7396 122.347C99.3818 122.578 99.0126 122.858 98.5331 123.232C99.0771 123.032 99.5079 122.77 99.8855 122.566C100.373 122.274 100.82 121.966 101.22 121.705C102.726 120.712 104.054 119.749 105.511 118.83C106.585 118.142 107.813 117.537 109.16 117.007C109.418 116.904 109.699 116.795 109.998 116.68C110.968 116.309 111.998 115.881 112.9 115.566C112.955 115.547 113.017 115.387 113.137 115.35C113.162 115.342 113.553 115.417 113.654 115.377C113.402 115.053 113.938 115.208 114.056 115.147C114.204 115.07 114.449 114.751 114.852 114.702C115.219 114.657 115.186 114.837 115.208 114.838C115.272 114.842 115.295 114.793 115.309 114.733C115.321 114.663 115.321 114.578 115.359 114.548C115.639 114.306 117.366 113.837 117.843 113.727C117.966 113.694 118.013 113.843 118.04 113.836C118.113 113.816 118.175 113.639 118.293 113.608C118.506 113.552 118.786 113.634 118.903 113.607C119.079 113.565 119.34 113.434 119.605 113.326C119.82 113.25 120.025 113.179 120.203 113.136C120.336 113.104 120.366 113.264 120.427 113.249C120.697 113.183 121.313 112.828 121.616 112.745C122.113 112.61 122.638 112.576 123.105 112.393C123.154 112.454 123.204 112.516 123.253 112.578C123.281 112.491 123.309 112.405 123.337 112.318C124.159 112.155 124.913 111.784 125.662 111.619C125.727 111.604 125.995 111.621 126.152 111.628C126.196 111.632 126.231 111.634 126.245 111.631C126.292 111.622 126.304 111.436 126.381 111.448C126.49 111.464 126.457 111.819 126.604 111.692C126.645 111.659 126.575 111.522 126.66 111.461C126.682 111.438 127.297 111.291 127.338 111.299C127.398 111.309 127.486 111.616 127.501 111.621C127.582 111.647 127.552 111.408 127.603 111.381C127.752 111.299 127.976 111.441 128.001 111.436C128.307 111.363 128.91 111.132 129.273 111.23C129.322 111.244 129.325 111.423 129.333 111.429C129.39 111.463 129.416 111.258 129.469 111.251C129.754 111.215 130.217 111.338 130.52 111.365C130.554 111.368 130.625 111.267 130.688 111.275C131.041 111.321 130.932 111.482 130.952 111.488C131.001 111.504 131.08 111.328 131.209 111.314C131.538 111.277 132.193 111.286 132.575 111.285C132.862 111.286 132.865 111.484 132.885 111.488C132.927 111.493 133.032 111.33 133.226 111.303C133.599 111.248 133.57 111.405 133.727 111.389C133.74 111.388 133.707 111.237 133.884 111.21C134.041 111.185 134.301 111.19 134.581 111.193L134.477 111.202C134.796 111.213 135.033 111.234 135.194 111.219C135.306 111.208 135.324 111.058 135.438 111.048C135.62 111.03 136.056 111.164 136.088 111.162C136.097 111.162 136.11 110.991 136.165 110.988C136.224 110.984 136.293 111.068 136.337 111.065C136.595 111.049 137.04 110.731 136.942 111.343C137.016 111.189 137.1 111.035 137.175 110.882C137.735 110.886 138.278 110.804 138.834 110.753C138.956 110.742 139.073 110.852 139.174 110.843C139.28 110.834 139.74 110.627 139.823 110.621C139.877 110.616 140.035 110.606 140.219 110.596L140.146 110.598C140.409 110.589 140.722 110.582 140.781 110.589C140.979 110.613 141.162 110.862 141.243 110.812C141.307 110.772 141.248 110.631 141.367 110.59C141.572 110.519 141.932 110.698 141.995 110.694C142.022 110.693 141.969 110.583 142.227 110.574C142.363 110.568 142.438 110.689 142.488 110.688C142.503 110.687 142.48 110.491 142.753 110.515C142.94 110.533 143.022 110.684 143.042 110.685C143.072 110.685 143.145 110.523 143.262 110.528C143.54 110.54 144.053 110.724 144.317 110.737C144.368 110.739 144.349 110.544 144.555 110.561C144.702 110.573 144.678 110.729 144.732 110.735C144.818 110.744 144.945 110.553 145.138 110.558C145.378 110.565 147.176 110.758 147.266 110.809C147.329 110.843 147.402 110.845 147.433 110.93C147.406 111.011 147.38 111.092 147.354 111.173C147.078 110.889 147.19 111.214 147.117 111.235C147.015 111.265 146.612 111.225 146.518 111.297C146.484 111.323 146.562 111.496 146.38 111.586C146.18 111.681 146.092 111.374 146.015 111.795C145.737 111.328 145.463 111.825 145.791 111.956C145.969 112.03 147.752 112.192 148.115 112.217C148.408 112.237 148.96 112.111 149.323 112.143C149.537 112.162 150.061 112.183 150.04 112.407C150.229 112.435 150.029 112.212 150.068 112.181C150.149 112.116 150.743 112.269 150.853 112.263C151.405 112.233 152.099 111.983 152.636 112.265C152.611 112.325 152.586 112.385 152.561 112.444C152.44 112.554 151.883 112.398 151.819 112.685C152.636 112.685 153.452 112.684 154.27 112.684C154.254 112.439 155.267 112.442 155.316 112.553C155.298 112.671 155.28 112.79 155.262 112.908C154.69 112.459 154.741 113.053 154.356 112.738C154.2 112.733 154.247 112.929 154.17 112.966C153.402 113.336 154.157 112.564 153.57 112.74C153.747 113.024 153.266 113.128 153.05 113.164C153.002 113.172 152.357 113.1 152.28 113.105C151.851 113.13 151.111 113.287 150.686 113.131C150.347 113.113 150.167 113.316 149.859 113.363C149.628 113.399 149.694 113.256 149.585 113.255C149.359 113.251 149.281 113.684 149.134 113.081C148.979 113.156 148.827 113.232 148.67 113.307C148.67 113.213 148.669 113.119 148.669 113.026C148.571 113.026 148.474 113.026 148.377 113.026C148.349 113.12 148.32 113.213 148.292 113.307C147.984 113.179 148.111 112.953 148.053 112.688C147.986 112.67 147.919 112.652 147.852 112.634C147.801 112.838 147.75 113.041 147.699 113.245C147.401 113.229 147.105 113.213 146.805 113.198C146.785 113.104 146.766 113.011 146.746 112.918C146.746 113.011 146.745 113.104 146.745 113.198C146.245 113.218 145.735 113.239 145.235 113.26C145.101 113.41 145.91 113.521 145.969 113.53C146.31 113.579 147.213 113.426 147.214 113.759C147.426 113.51 148.062 113.57 148.262 113.868C147.959 113.851 147.663 113.834 147.359 113.816C147.369 113.928 147.379 114.04 147.389 114.151C147.013 113.702 146.958 113.727 146.574 114.153C146.574 114.004 146.573 113.854 146.572 113.704C146.307 114.225 145.828 113.344 145.818 113.987C145.673 113.935 145.53 113.883 145.388 113.832C145.084 113.911 145.558 114.404 144.354 114.215C144.271 114.202 144.288 114.038 144.163 114.05C144.126 114.053 143.922 114.292 143.527 114.27C143.466 114.266 143.46 114.124 143.396 114.106C143.251 114.064 142.957 114.347 143.089 113.888C142.505 113.758 142.751 114.133 142.569 114.283C142.449 114.383 142.471 114.112 142.368 114.174C142.242 114.251 142.334 114.524 141.822 114.402C141.879 114.383 141.936 114.364 141.993 114.345C141.964 114.271 141.934 114.197 141.905 114.123C141.616 114.303 141.637 114.043 141.504 114.461C141.294 114.277 141.106 114.264 140.816 114.301C140.374 114.358 140.461 114.655 140.195 114.467L140.349 114.463C140.277 114.417 140.181 114.342 140.049 114.224C139.951 114.313 139.845 114.401 139.745 114.49C139.568 114.317 139.703 114.089 139.442 114.053C139.657 114.487 139.115 114.346 139.038 114.742C139.025 114.649 139.012 114.556 138.999 114.462C138.943 114.464 138.889 114.466 138.83 114.469C138.833 114.544 138.835 114.619 138.838 114.694C138.759 114.641 138.682 114.587 138.607 114.534C138.554 114.611 138.497 114.687 138.444 114.764C138.346 114.611 138.248 114.457 138.148 114.304C138.089 114.296 138.033 114.287 137.974 114.279C137.998 114.39 138.02 114.501 138.043 114.612C137.968 114.578 137.888 114.544 137.814 114.51C137.906 114.69 137.867 114.907 137.633 114.911C137.446 114.915 137.638 114.522 137.242 114.7C137.213 114.713 137.175 114.988 136.802 115.049C136.359 115.123 136.568 114.914 136.487 114.911C136.47 114.911 136.343 115.056 136.223 115.083C136.151 115.098 136.081 114.991 136.071 114.992C136.027 115 136.024 115.157 135.968 115.166C135.821 115.189 135.622 115.125 135.484 115.143C135.42 115.152 135.366 115.249 135.337 115.252C135.291 115.257 135.22 115.12 135.17 115.124C135.071 115.134 134.935 115.28 134.772 115.318L134.986 115.3C134.838 115.338 134.706 115.289 134.619 114.989C134.397 115.614 133.826 114.92 133.894 115.32C133.203 115.214 131.766 115.746 131.803 115.065C131.523 115.654 131.54 115.232 131.419 115.244C131.285 115.257 131.357 115.368 131.251 115.366C131.005 115.36 130.775 115.317 130.545 115.321C130.578 115.227 130.612 115.133 130.646 115.039C130.402 115.016 130.491 115.23 130.25 115.28C129.815 115.37 129.995 115.191 129.921 114.95C129.944 115.184 129.447 115.168 129.399 115.14C129.37 115.122 129.481 114.812 129.194 114.925C129.215 115.017 129.236 115.11 129.256 115.202C129.115 115.081 128.781 115.264 128.725 115.237C128.699 115.224 128.501 114.483 128.425 115.088C128.403 114.996 128.38 114.904 128.358 114.812C128.231 114.935 128.11 115.06 127.998 115.184C127.961 115.019 127.923 114.854 127.884 114.689C127.844 114.693 127.805 114.698 127.765 114.702C127.809 114.848 127.852 114.993 127.894 115.139C127.643 115.098 127.43 115.369 127.311 114.878C127.282 114.977 127.255 115.077 127.231 115.176C127.177 115.015 127.121 114.855 127.064 114.695C126.928 114.753 126.914 114.831 126.883 114.953C126.861 114.993 126.836 115.038 126.801 115.089C126.78 114.96 126.758 114.831 126.737 114.701C126.638 114.912 126.417 115.139 126.207 115.214C126.109 115.249 125.886 115.118 125.865 115.141C125.844 115.164 125.772 115.913 125.592 115.326C125.289 115.685 125.047 115.463 124.892 115.511C124.79 115.543 124.782 115.698 124.669 115.744C124.507 115.811 124.316 115.789 124.219 115.826C124.164 115.847 124.191 115.989 124.152 116.004C123.971 116.076 124.043 115.905 123.846 115.968C123.828 115.975 123.728 116.184 123.553 116.208C123.456 116.221 123.157 116.098 123.135 116.105C123.038 116.135 123.221 116.494 122.763 116.145C122.792 116.215 122.822 116.285 122.851 116.354C122.475 116.651 122.315 116.347 122.221 116.348C122.21 116.349 122.134 116.502 122.064 116.502C121.946 116.501 121.857 116.341 121.83 116.34C121.737 116.336 121.456 116.486 121.211 116.369C121.38 116.847 120.666 117.197 120.357 116.677C120.343 116.694 120.328 116.711 120.314 116.727C120.267 116.838 120.22 116.949 120.175 117.06C120.121 116.976 120.066 116.892 120.011 116.809C120.011 116.905 120.011 117 120.011 117.096C119.855 116.921 119.697 116.747 119.535 116.575C119.578 116.777 119.62 116.978 119.663 117.18C119.627 117.165 119.591 117.15 119.554 117.135C119.491 116.982 119.426 116.83 119.361 116.677C119.329 116.718 119.299 116.758 119.268 116.798C119.288 116.916 119.309 117.033 119.33 117.15C119.164 117.336 118.96 116.218 118.842 117.286C118.755 117.214 118.668 117.143 118.579 117.072C118.644 117.528 118.436 117.304 118.348 117.386C118.286 117.444 118.346 117.614 118.25 117.65C118.154 117.687 118.101 117.522 118.093 117.523C118.01 117.541 117.999 117.705 117.931 117.697C117.921 117.696 117.83 117.51 117.751 117.525C117.67 117.539 117.7 117.761 117.575 117.763C117.511 117.764 117.434 117.609 117.377 117.614C117.102 117.638 117.195 118.543 116.617 117.66C116.62 117.692 116.615 117.747 116.604 117.812C116.537 118.04 116.39 118.391 116.254 118.426C115.984 118.495 116.001 118.267 115.886 118.275C115.87 118.276 115.818 118.372 115.598 118.453C115.559 118.467 115.613 118.569 115.608 118.573C115.358 118.677 114.83 118.804 114.54 118.911C114.515 118.92 114.509 119.271 114.111 118.973C113.901 119.41 112.978 119.06 112.672 119.706C112.609 119.743 112.482 119.671 112.453 119.687C112.205 119.826 112.434 120.112 111.641 119.879C111.755 120.024 111.672 120.23 111.464 120.296C111.442 120.303 111.422 120.308 111.404 120.31C111.201 120.328 111.239 120.009 111.061 120.105C111.095 120.192 111.129 120.279 111.163 120.366C110.617 120.309 110.677 120.714 110.263 120.885C110.115 120.946 109.824 120.843 109.79 120.857C109.777 120.863 109.711 121.136 109.698 121.143C109.62 121.185 109.533 121.109 109.464 121.139C109.233 121.237 109.102 121.621 108.925 121.117C108.912 121.246 108.901 121.375 108.891 121.504C108.426 121.096 108.614 121.877 108.325 121.405C108.339 121.526 108.353 121.646 108.369 121.766C108.064 121.9 107.777 122.036 107.51 122.173C106.805 122.55 106.126 122.937 105.434 123.357C105.492 123.53 105.01 123.783 104.97 123.777C104.792 123.749 104.686 123.351 104.515 123.577C104.588 123.733 104.66 123.889 104.733 124.045C104.485 124.286 104.522 124.054 104.344 124.038C104.309 124.088 104.401 124.185 104.342 124.238C104.033 124.519 103.275 125.067 102.808 125.402C102.715 125.468 102.66 125.357 102.63 125.377C102.551 125.433 102.477 125.672 102.305 125.788C102.244 125.829 102.18 125.872 102.113 125.915C102.043 125.957 101.934 126.002 101.63 126.227C101.336 126.442 100.898 126.799 100.5 127.102C100.443 127.146 100.334 127.047 100.294 127.076C100.238 127.117 100.212 127.308 100.149 127.352C100.091 127.393 99.9829 127.343 99.9198 127.386C99.633 127.58 99.4205 128.047 98.9188 128.071C98.878 128.072 98.1821 127.917 98.1501 127.893C97.9546 127.761 97.9608 127.26 97.313 127.407C97.4856 126.841 97.009 126.579 96.3588 126.838C96.5561 126.566 96.7488 126.295 96.9413 126.022C96.8992 125.977 96.8572 125.932 96.8151 125.887C96.3898 125.87 96.108 125.997 95.7581 126.283C95.7297 126.232 95.7013 126.18 95.6728 126.129C95.7704 125.651 96.0808 125.285 96.0287 124.798C95.5136 124.892 94.9975 124.983 94.4833 125.067C94.4689 125.019 94.4545 124.971 94.44 124.923C94.5113 124.699 94.7991 124.335 94.8471 124.14C95.0381 123.388 94.2166 124.308 94.1907 123.984C94.7002 123.519 95.2021 123.048 95.6969 122.577C95.588 122.433 93.3277 123.88 92.9623 123.438C93.0943 123.265 93.2234 123.093 93.3525 122.92C93.1835 122.882 93.0202 122.839 92.8526 122.8C92.8409 122.749 92.8291 122.698 92.8171 122.648C93.0014 122.324 93.1827 121.999 93.3622 121.673C92.6592 122.501 92.2303 122.779 91.2822 122.122C91.2845 122.082 91.2867 122.041 91.2887 122C91.9352 122.365 92.5803 121.451 92.9001 120.945C92.6728 120.878 92.4125 121.347 92.2494 121.33C92.2028 121.326 92.1818 121.148 92.08 121.144C91.8157 121.133 91.0787 121.484 91.0029 121.236C90.9558 121.078 91.721 120.075 91.9067 119.914C91.3079 120.117 90.83 120.461 90.193 120.602C90.1468 120.024 89.9902 119.408 90.4403 118.945C90.415 118.641 89.2044 119.326 89.0927 119.247C89.1696 118.985 89.2401 118.728 89.3144 118.465C89.197 118.627 89.0786 118.789 88.9624 118.947C88.9302 118.913 88.8979 118.879 88.8656 118.845C89.0888 118.342 89.1451 117.739 89.5868 117.35C89.4008 117.185 89.1645 117.447 89.0434 117.559ZM150.942 113.7C150.954 113.905 150.724 113.872 150.592 113.868C150.612 113.905 150.632 113.943 150.651 113.98C150.371 113.941 149.853 113.863 149.834 114.262C149.635 114.312 149.722 113.965 149.658 113.926C149.633 113.91 149.375 114.112 149.166 113.867C149.116 113.868 149.067 113.869 149.018 113.87C149.008 114.001 148.999 114.132 148.99 114.262C148.921 114.104 148.853 113.945 148.783 113.786C149.502 113.757 150.221 113.728 150.941 113.7C150.941 113.7 150.941 113.7 150.942 113.7ZM143.783 113.886C143.522 113.814 143.123 113.7 143.206 114.058C143.368 114.038 143.534 114.018 143.699 113.998C143.727 113.961 143.755 113.924 143.783 113.886ZM119.478 116.244C119.231 115.941 119.157 116.275 118.894 116.281C118.914 116.353 118.934 116.425 118.954 116.497C119.007 116.296 119.305 116.34 119.478 116.244ZM157.451 112.349C157.499 112.376 157.548 112.404 157.596 112.432C157.4 112.832 157.364 112.55 157.142 112.589C157.129 112.591 157.133 112.683 157.129 112.684C157.074 112.69 157.024 112.579 156.975 112.581C156.881 112.584 156.803 112.696 156.635 112.692C156.506 112.689 156.504 112.513 156.459 112.518C156.42 112.522 156.035 113.006 155.787 112.797C155.316 112.399 157.307 112.311 157.451 112.349ZM158.848 112.68C158.801 112.681 158.755 112.683 158.708 112.684C158.848 112.414 158.565 112.455 158.358 112.461C158.364 112.202 158.803 112.312 159 112.235C158.949 112.383 158.899 112.531 158.848 112.68ZM152.956 112.125C153.138 112.098 153.108 112.422 153.1 112.518C153.042 112.518 152.984 112.518 152.926 112.518C152.936 112.387 152.946 112.256 152.956 112.125ZM154.326 112.012C154.27 112.232 153.874 112.328 153.687 112.346C153.678 112.346 153.73 112.226 153.597 112.237C153.558 112.24 153.166 112.68 153.252 112.181C153.61 112.125 153.969 112.069 154.326 112.012C154.326 112.012 154.326 112.012 154.326 112.012ZM154.727 112.142C154.652 112.211 154.577 112.28 154.502 112.349C154.464 112.246 154.425 112.143 154.387 112.039C154.472 112.013 154.556 111.987 154.642 111.961C154.67 112.021 154.698 112.082 154.727 112.142ZM103.378 121.638C103.454 121.72 103.53 121.802 103.606 121.883C103.696 121.903 103.673 121.336 103.542 121.313C103.487 121.422 103.433 121.529 103.378 121.638ZM102.157 122.212C102.07 122.206 101.982 122.2 101.894 122.194C101.937 122.392 101.98 122.591 102.023 122.79C102.381 122.692 102.754 122.606 102.388 122.189C102.452 122.144 102.513 122.101 102.575 122.057C102.654 122.28 102.706 122.336 102.949 122.341C102.802 122.057 103.06 122.073 103.207 121.886C103.06 121.965 102.914 122.045 102.764 122.128C102.732 122.082 102.699 122.036 102.667 121.991C102.987 121.791 102.401 121.768 102.324 122.095C102.265 122.046 102.206 121.997 102.146 121.947C102.15 122.035 102.154 122.124 102.157 122.212ZM126.442 112.583C126.406 112.542 126.371 112.5 126.335 112.46C126.327 112.452 126.319 112.445 126.311 112.438C126.312 112.765 126.345 112.807 126.409 112.794C126.468 112.782 126.574 112.679 126.732 112.983C126.591 112.561 126.874 112.529 126.889 112.497C126.831 112.356 126.773 112.215 126.713 112.075C126.613 112.244 126.522 112.413 126.442 112.583ZM125.167 112.364C125.406 112.68 124.674 112.89 124.395 112.882C124.328 112.879 124.165 112.715 124.127 112.751C124.118 112.83 124.11 112.909 124.102 112.988C124.004 112.749 123.571 113.165 123.403 113.354C123.359 113.269 123.315 113.184 123.271 113.099C123.207 113.156 123.142 113.212 123.077 113.268C123.062 113.176 123.047 113.083 123.031 112.991C123.004 113.114 122.977 113.238 122.949 113.361C122.757 113.543 122.763 113.015 122.635 113.214C122.491 113.436 122.881 113.643 122.927 113.834C123.067 113.743 123.38 113.54 123.529 113.494C123.614 113.467 123.61 113.834 123.874 113.342C123.98 113.411 124.085 113.481 124.189 113.55C124.297 113.366 124.404 113.182 124.51 112.999C124.571 113.118 124.631 113.237 124.691 113.356C124.712 113.371 124.967 112.999 124.925 112.908C125.121 113.115 125.403 113.089 125.683 113.034C125.693 112.958 125.703 112.883 125.713 112.807C125.48 113.022 125.609 112.755 125.496 112.643C125.431 112.579 125.249 112.465 125.167 112.364ZM104.864 120.306C104.638 120.829 104.743 120.448 104.314 120.728C104.436 120.85 104.559 120.971 104.681 121.093C104.721 120.697 105.178 120.65 104.865 120.306C104.865 120.306 104.865 120.306 104.864 120.306ZM100.721 123.823C100.721 123.823 100.721 123.823 100.721 123.823C100.948 123.548 100.663 123.425 100.961 123.12C100.961 123.12 100.962 123.12 100.962 123.12C100.793 123.215 100.621 123.311 100.445 123.408C100.436 123.411 100.427 123.415 100.417 123.419C100.52 123.553 100.621 123.688 100.721 123.823ZM115.089 116.011C115.374 115.97 115.272 115.87 115.608 116.013C115.83 115.575 115.554 115.74 115.442 115.474C115.398 115.584 115.348 115.697 115.303 115.808C115.005 115.641 115.136 115.438 115.126 115.414C115.125 115.414 115.125 115.414 115.125 115.415C115.091 115.335 115.091 115.315 114.996 115.298C115.026 115.536 115.059 115.773 115.089 116.011ZM115.987 115.249C115.982 115.458 116.043 115.698 116.283 115.735C116.283 115.735 116.283 115.735 116.284 115.735C116.142 115.33 116.458 115.578 116.533 115.519C116.539 115.467 116.546 115.415 116.552 115.363C116.365 115.323 116.177 115.285 115.987 115.249ZM119.309 113.803C119.413 114.264 119.253 114.346 119.59 114.717C119.635 114.699 119.679 114.68 119.724 114.662C119.733 114.554 119.742 114.446 119.752 114.337C119.779 114.362 119.805 114.384 119.83 114.404C120.688 114.83 120.694 113.824 119.778 114.158C119.697 114.192 119.604 114.249 119.504 114.333C119.504 114.334 119.504 114.334 119.504 114.334C119.44 114.157 119.375 113.98 119.309 113.803ZM118.244 114.113C118.303 114.354 118.362 114.595 118.421 114.837C118.128 114.297 118.118 114.894 117.74 114.568C117.739 114.647 117.738 114.726 117.738 114.805C117.593 114.67 116.638 114.947 116.97 115.238C117.112 115.365 117.227 115.085 117.245 115.085C117.307 115.083 117.447 115.262 117.536 115.219C117.587 115.195 117.624 114.919 117.737 114.885C117.992 114.805 118.618 115.324 118.783 114.624C118.825 114.69 118.868 114.756 118.91 114.823C119.142 114.717 119.006 114.506 119.3 114.727C119.184 113.537 118.394 115.016 118.376 114.035C118.376 114.035 118.376 114.035 118.376 114.035C118.332 114.06 118.287 114.087 118.244 114.113ZM110.87 117.406C110.773 117.217 110.529 117.664 110.429 117.158C110.396 117.285 110.364 117.411 110.33 117.538C110.313 117.621 110.296 117.703 110.279 117.786C110.296 117.829 110.314 117.873 110.332 117.917C110.369 117.887 110.405 117.857 110.442 117.827C110.507 117.778 110.57 117.729 110.634 117.68C110.662 117.749 110.69 117.819 110.717 117.888C110.799 117.567 111.57 117.381 111.648 117.635C111.644 117.516 111.64 117.396 111.635 117.277C112.095 117.417 112.26 116.995 112.734 117.117C112.726 117.02 112.717 116.922 112.708 116.825C112.755 116.887 112.803 116.948 112.85 117.009C112.984 116.962 113.116 116.916 113.248 116.87C113.544 116.414 112.583 116.402 112.498 116.486C112.487 116.497 112.565 116.675 112.494 116.738C112.371 116.85 111.451 117.027 111.226 117.255C111.175 117.137 111.124 117.019 111.073 116.901C111.007 117.069 110.939 117.237 110.87 117.406ZM121.158 113.897C121.211 114.018 121.264 114.14 121.317 114.261C121.648 114.042 121.894 114.095 121.695 113.7C121.695 113.7 121.694 113.7 121.694 113.7C121.518 113.766 121.341 113.831 121.158 113.897ZM145.053 111.801C145.043 111.541 144.881 111.444 144.674 111.631C144.684 111.707 144.695 111.782 144.705 111.858C144.812 111.636 144.948 112.021 145.286 111.969C145.286 111.838 145.285 111.707 145.285 111.576C145.208 111.651 145.13 111.726 145.053 111.801ZM120.828 113.921C120.68 113.798 120.462 114.331 120.683 114.302C120.85 114.28 120.909 113.986 120.828 113.921ZM100.098 123.981C100.152 123.971 100.204 123.963 100.255 123.957C100.202 123.856 100.15 123.756 100.098 123.654C100.098 123.654 100.098 123.654 100.098 123.654C100.098 123.761 100.099 123.87 100.098 123.981ZM114.218 116.406C114.448 116.289 114.677 116.174 114.905 116.059C114.879 115.991 114.853 115.924 114.827 115.856C114.695 116.2 114.488 115.978 114.427 115.985C114.427 115.985 114.427 115.985 114.427 115.985C114.228 116.007 114.042 116.041 113.84 116.033C113.966 116.157 114.092 116.281 114.218 116.406ZM113.221 116.335C113.463 116.789 113.541 116.821 113.765 116.332C113.725 116.28 113.686 116.228 113.646 116.177C113.472 116.292 113.407 116.449 113.335 116.189C113.297 116.238 113.259 116.286 113.221 116.335ZM116.792 115.034C116.7 114.893 116.456 115.158 116.503 115.229C116.521 115.256 116.973 115.308 116.792 115.034ZM147.936 111.679C147.848 111.642 147.761 111.605 147.674 111.568C147.789 111.512 147.906 111.456 148.023 111.4C147.994 111.493 147.965 111.586 147.936 111.679ZM148.897 110.948C148.96 111.014 148.758 111.475 149.131 111.593C148.86 111.604 148.586 111.614 148.316 111.624C148.442 111.549 148.57 111.475 148.698 111.4C148.675 111.267 148.653 111.135 148.63 111.002C148.719 110.984 148.809 110.966 148.897 110.948ZM149.189 111.286C149.042 110.935 149.813 110.908 149.885 110.951C149.901 110.961 149.978 111.227 150.006 111.284C149.889 111.284 149.772 111.285 149.656 111.285C149.695 111.369 149.734 111.452 149.773 111.536C149.637 111.565 149.503 111.594 149.366 111.622C149.424 111.538 149.482 111.454 149.54 111.37C149.424 111.342 149.306 111.314 149.189 111.286ZM146.098 111.377C146.196 111.386 146.294 111.394 146.392 111.403C146.372 111.272 146.352 111.141 146.332 111.011C146.273 111.011 146.215 111.011 146.156 111.011C146.137 111.133 146.118 111.255 146.098 111.377ZM148.083 111.204C147.941 111.834 147.552 110.457 148.005 110.966C148.051 111.018 148.096 111.143 148.083 111.204ZM150.175 111.026C150.476 110.566 150.409 111.58 150.124 111.283C150.109 111.268 150.152 111.06 150.175 111.026ZM152.447 111.009C152.472 111.012 152.515 111.341 152.75 111.028C152.789 111.066 152.827 111.103 152.866 111.141C152.777 111.293 152 111.384 152.108 111.059C152.226 111.054 152.325 110.999 152.447 111.009ZM151.696 109.795C151.58 109.804 151.464 109.813 151.348 109.822C151.387 109.925 151.425 110.028 151.463 110.131C151.406 110.159 151.349 110.187 151.291 110.215C151.193 110.038 151.095 109.86 150.997 109.683C151.25 109.654 151.503 109.626 151.755 109.597C151.736 109.663 151.716 109.729 151.696 109.795ZM148.604 109.545C148.831 109.673 149.1 109.535 149.466 109.557C149.466 109.557 149.466 109.558 149.466 109.558C149.484 109.559 149.516 109.701 149.575 109.706C149.624 109.711 150.605 109.554 150.529 109.794C150.149 110.009 150.009 109.683 149.917 110.215C149.898 110.103 149.88 109.991 149.861 109.879C149.495 109.685 149.393 110.074 149.187 110.216C149.188 110.132 149.188 110.047 149.189 109.963C149.052 109.954 148.916 109.946 148.779 109.938C148.799 109.993 148.818 110.049 148.837 110.105C148.79 110.105 148.74 110.105 148.692 110.105C148.573 109.854 148.423 109.796 148.604 109.545ZM152.224 109.934C152.33 109.292 153.381 109.731 153.858 109.596C153.607 109.983 153.217 109.717 152.943 109.713C152.415 109.706 152.78 109.942 152.691 110.046C152.646 110.097 152.344 109.686 152.224 109.934ZM147.787 109.658C148.05 109.71 148.2 109.562 148.427 109.797C148.408 109.844 148.389 109.891 148.37 109.937C148.294 109.895 147.653 109.761 147.787 109.658ZM154.56 109.764C154.049 109.534 154.302 110.115 154.036 109.679C154.211 109.652 154.385 109.624 154.56 109.596C154.56 109.652 154.56 109.708 154.56 109.764ZM119.643 111.719C119.524 111.738 119.39 111.732 119.277 111.756C119.188 111.775 119.114 111.824 119.083 111.952C119.162 111.957 119.242 111.962 119.321 111.967C119.392 111.969 119.464 111.97 119.535 111.971C119.571 111.887 119.607 111.803 119.643 111.719ZM125.063 107.876C125.002 107.83 124.851 108.042 124.831 108.046C124.794 108.055 124.785 107.97 124.779 107.949C124.54 108.022 124.824 108.223 124.659 108.321C124.631 108.337 124.181 108.315 124.013 108.369C123.755 108.451 123.489 108.504 123.393 108.534C123.229 108.584 122.974 108.856 122.707 108.939C122.596 108.973 122.516 108.832 122.405 108.866C121.693 109.088 120.327 109.686 119.651 109.742C119.484 109.756 119.284 109.591 119.204 109.626C119.153 109.715 119.103 109.803 119.051 109.891C118.947 109.709 118.88 109.632 118.832 109.619C118.715 109.587 118.699 109.908 118.556 109.986C118.426 110.055 118.316 109.875 118.297 109.88C118.174 109.912 118.135 110.02 118.042 110.059C117.937 110.102 117.759 110.053 117.725 110.079C117.704 110.096 117.844 110.333 117.427 110.439C117.002 110.549 116.579 110.645 116.15 110.771C116.538 111.491 116.487 110.929 116.654 110.848C116.698 110.826 116.706 110.957 116.744 110.94C116.854 110.89 117.037 110.706 117.141 110.708C117.253 110.71 117.298 111.005 117.397 110.864C117.402 110.857 117.349 110.745 117.374 110.717C117.629 110.438 117.786 110.615 118.178 110.526C118.286 110.502 118.617 110.403 118.976 110.31C119.511 110.172 120.077 110.005 120.122 110.042C120.4 110.279 119.643 110.57 119.059 110.707C118.829 110.763 118.636 110.8 118.576 110.803C118.505 110.807 118.546 110.659 118.479 110.648C118.45 110.644 118.275 110.949 118.052 111.027C117.783 111.12 117.183 111.103 116.922 111.189C116.011 111.484 115.111 111.795 114.221 112.144C112.888 112.665 111.562 113.19 110.208 113.751C110.16 113.771 110.154 113.94 109.994 114.006C109.699 114.126 109.4 114.244 109.098 114.358C107.385 115.003 105.693 115.662 104.159 116.568C103.277 117.087 102.424 117.638 101.597 118.229C101.038 118.629 100.564 119.143 99.9201 119.457C99.914 119.6 99.9063 119.743 99.8996 119.885C100.033 119.682 100.514 119.653 100.546 119.635C100.558 119.628 100.554 119.476 100.668 119.403C100.829 119.301 100.961 119.342 100.974 119.334C101.013 119.306 100.92 119.229 100.958 119.203C101.243 119.009 101.441 118.831 101.698 118.653C101.99 118.453 102.258 118.536 102.339 118.194C102.415 118.256 102.491 118.318 102.566 118.38C102.5 117.935 103.485 117.355 103.892 117.135C104.019 117.065 104.083 117.219 104.125 117.193C104.151 117.177 104.039 117.015 104.334 116.861C104.347 116.854 104.361 116.847 104.377 116.84C104.546 116.765 104.666 116.876 104.743 116.827C104.785 116.799 104.701 116.668 104.764 116.633C105.128 116.428 105.455 116.313 105.837 116.155C105.944 116.111 106.002 116.227 106.025 116.214C106.107 116.167 106.162 115.897 106.385 115.794C106.75 115.622 107.497 115.302 107.849 115.274C107.901 115.27 107.997 115.398 108.03 115.383C108.079 115.358 108.038 115.2 108.047 115.196C108.216 115.124 108.17 115.305 108.271 115.225C108.325 115.182 108.321 114.984 108.458 114.908C108.64 114.806 108.682 115.025 108.755 114.973C108.762 114.967 108.709 114.824 108.786 114.788C108.905 114.733 109.047 114.667 109.192 114.601C109.412 114.501 109.638 114.398 109.812 114.328C109.896 114.295 109.998 114.364 110.116 114.318C110.359 114.226 111.655 113.605 111.783 113.613C111.796 113.614 111.768 113.871 111.952 113.785C111.968 113.676 111.986 113.566 112.002 113.457C112.151 113.557 112.3 113.656 112.449 113.755C112.241 113.281 112.736 112.981 112.941 113.47C113.006 113.466 113.072 113.461 113.138 113.456C113.113 113.068 113.247 113.158 113.394 112.862C113.474 112.95 113.554 113.038 113.634 113.125C113.614 113.053 113.594 112.98 113.574 112.907C113.855 113.228 113.899 112.767 113.923 112.755C114.015 112.706 114.125 112.772 114.169 112.75C114.233 112.718 114.315 112.657 114.41 112.591C114.548 112.492 114.706 112.388 114.835 112.379C114.845 112.379 114.901 112.543 114.962 112.542C115.071 112.541 114.988 112.3 115.223 112.529C115.222 112.449 115.221 112.37 115.22 112.29C115.261 112.316 115.302 112.341 115.343 112.367C115.497 112.288 115.653 112.209 115.808 112.132C115.76 112.462 115.984 112.555 116.066 112.282C116.095 112.189 115.988 112.037 115.997 112.005C116.01 111.959 116.776 111.802 116.859 111.9C116.877 111.836 116.896 111.771 116.914 111.706C116.965 111.809 117.015 111.911 117.065 112.014C117.073 111.97 117.081 111.927 117.089 111.883C117.335 112.015 117.711 111.437 117.815 111.448C117.868 111.454 117.948 111.929 118.166 111.822C118.142 111.692 118.117 111.562 118.093 111.432C118.142 111.401 118.192 111.369 118.241 111.337C118.346 111.323 118.546 111.51 118.586 111.661C118.596 111.563 118.606 111.464 118.617 111.366C118.734 111.577 119.007 111.507 119.196 111.364C119.265 111.317 119.325 111.262 119.366 111.206C119.446 111.283 119.528 111.359 119.61 111.435C119.666 111.307 119.724 111.179 119.778 111.051C119.956 110.975 119.802 111.202 119.845 111.208C119.94 111.219 120.286 110.811 120.353 111.197C120.411 111.184 120.468 111.17 120.526 111.157C120.528 111.041 120.53 110.925 120.531 110.809C120.724 111.158 120.86 110.982 121.238 111.028C121.244 110.934 121.25 110.841 121.256 110.747C121.394 110.841 121.531 110.935 121.67 111.028C121.653 110.881 121.636 110.733 121.619 110.585C121.659 110.552 121.699 110.519 121.739 110.487C121.917 110.78 121.989 110.391 122.108 110.5C122.283 110.657 122.251 110.911 122.035 111.017C122.116 111.244 122.763 110.953 122.911 110.895C122.889 110.852 122.866 110.81 122.844 110.768C122.696 110.846 122.547 110.925 122.397 111.005C122.105 110.459 122.58 110.497 122.756 110.368C122.772 110.356 122.814 110.108 123.018 110.075C123.097 110.062 123.482 110.304 123.543 110.307C124.039 110.334 123.582 109.96 124.134 110.248C123.96 109.962 124.284 110.153 124.533 110.026C124.575 110.004 124.894 109.657 124.919 109.645C125.07 109.565 124.962 109.883 125.176 109.756C125.186 109.677 125.197 109.598 125.208 109.519C125.262 109.506 125.316 109.493 125.37 109.481C125.565 109.716 125.673 109.772 125.74 109.751C125.827 109.722 125.839 109.53 125.896 109.481C125.935 109.447 125.913 109.628 126.018 109.57C126.057 109.549 126.078 109.398 126.194 109.367C126.563 109.272 126.766 109.867 127.032 109.186C127.097 109.272 127.161 109.358 127.225 109.445C127.249 109.33 127.272 109.215 127.297 109.1C127.612 109.392 127.476 109.073 127.579 109.067C127.849 109.049 128.414 109.073 128.48 109.337C128.678 108.709 129.005 109.386 129.096 109.358C129.148 109.28 129.2 109.203 129.253 109.126C129.322 109.198 129.392 109.27 129.461 109.342C129.404 108.741 129.772 109.32 129.804 109.328C129.842 109.336 130.369 109.141 130.57 109.139C130.77 109.137 131.125 109.291 131.156 109.291C131.192 109.29 131.532 109.118 131.804 109.112C132.033 109.112 133.492 109.287 133.391 109.017C133.289 108.949 133.153 108.891 133.034 108.862C132.656 108.78 130.598 108.688 130.088 108.662C129.05 108.609 127.989 108.677 126.988 108.74C126.93 108.744 126.901 108.59 126.85 108.593C126.772 108.598 126.601 108.779 126.527 108.787C126.248 108.814 125.91 108.85 125.765 108.876C125.69 108.889 125.62 108.897 125.553 108.903C125.32 108.924 125.124 108.909 124.924 108.945C124.842 108.959 124.483 109.246 124.185 109.238C124.124 109.208 124.062 109.179 124.001 109.149C124.132 109.062 124.477 108.838 124.649 108.781C124.905 108.696 125.07 108.788 125.166 108.763C125.21 108.752 125.344 108.676 125.488 108.604C125.6 108.545 125.723 108.49 125.805 108.473C125.862 108.461 125.904 108.619 125.953 108.61C126.216 108.557 126.566 108.5 126.782 108.31C126.693 108.373 127.304 108.401 127.336 108.399C127.39 108.394 127.434 108.235 127.546 108.224C127.761 108.205 127.759 108.527 128.002 108.186C128.076 108.274 128.149 108.362 128.222 108.45C128.198 108.022 129.074 108.551 129.292 108.025C129.297 107.963 128.179 107.857 128.086 107.86C127.532 107.847 126.737 108.037 126.204 108.049C126.044 108.05 125.499 107.889 125.46 107.905C125.401 107.925 125.486 108.058 125.461 108.069C125.431 108.082 125.403 108.094 125.378 108.103C124.977 108.254 125.148 107.94 125.063 107.876ZM149.186 109.262C149.018 109.245 148.855 109.228 148.687 109.21C148.699 109.117 148.711 109.023 148.723 108.929C148.8 108.965 148.875 109.002 148.951 109.038C149.01 108.982 149.068 108.926 149.126 108.87C149.146 109.001 149.166 109.132 149.186 109.262ZM149.595 108.869C149.739 108.822 149.746 109.019 149.78 109.029C149.879 109.058 149.965 108.978 150.062 108.981C149.951 109.451 149.714 109.236 149.595 108.869ZM146.616 108.706C146.648 108.728 146.87 109.233 147.113 108.762C147.296 108.911 147.485 109.06 147.668 109.209C147.353 108.982 146.923 109.22 146.766 109.212C146.708 109.208 146.696 109.053 146.65 109.051C146.383 109.039 146.12 109.391 146.092 108.878C146.348 109.026 146.575 108.679 146.616 108.706ZM148.239 108.885C148.282 108.992 148.325 109.1 148.368 109.207C148.214 109.207 148.057 109.208 147.902 109.208C147.944 109.099 147.986 108.99 148.028 108.882C148.098 108.883 148.17 108.884 148.239 108.885ZM136.357 108.726C136.448 108.723 136.548 108.719 136.639 108.716C136.63 108.638 136.523 108.643 136.479 108.593C136.479 108.593 136.48 108.593 136.48 108.593C136.432 108.535 136.446 108.434 136.364 108.393C136.362 108.504 136.359 108.615 136.357 108.726ZM99.6101 119.679C99.5108 119.744 98.8083 120.234 98.5417 120.547C98.4674 120.645 98.4462 120.728 98.5114 120.773C98.5527 120.801 98.6097 120.783 98.6733 120.745C98.8347 120.646 99.0285 120.446 99.1149 120.389C99.2884 120.274 99.9211 120.208 99.6101 119.679ZM97.5302 121.114C97.7012 121.333 98.3606 120.861 98.3976 120.786C98.3607 120.762 98.287 120.704 98.2567 120.701C98.1085 120.682 97.7197 121.048 97.5302 121.114ZM130.934 108.193C131.012 108.335 131.09 108.477 131.169 108.619C131.144 108.432 131.12 108.245 131.096 108.059C131.042 108.103 130.988 108.148 130.934 108.193ZM123.965 109.248C122.771 109.547 121.573 109.884 120.345 110.189C120.433 110.086 120.521 109.983 120.609 109.88C121.665 109.632 122.785 109.396 123.749 109.021C123.821 109.096 123.893 109.172 123.965 109.248ZM146.263 107.864C145.944 107.862 145.677 108.001 145.331 107.783C145.659 107.57 145.826 107.898 146.145 107.584C146.146 107.584 146.146 107.584 146.146 107.584C146.185 107.678 146.224 107.771 146.263 107.864ZM139.162 107.88C139.254 107.746 139.35 107.611 139.439 107.477C139.327 107.481 139.203 107.485 139.089 107.49C139.113 107.62 139.137 107.75 139.162 107.88ZM113.392 111.584C113.197 111.976 112.209 111.836 112.095 112.259C112.088 112.287 112.293 112.357 112.164 112.717C112.322 112.587 112.427 112.478 112.353 112.27C112.437 112.315 112.52 112.361 112.603 112.407C112.671 112.317 112.736 112.227 112.804 112.136C112.881 112.343 112.882 112.329 112.96 112.132C113.046 112.156 113.128 112.182 113.213 112.206C113.203 112.109 113.194 112.012 113.183 111.915C113.288 112.013 113.393 112.109 113.498 112.206C113.653 111.987 113.427 111.809 113.392 111.584ZM114.488 111.188C114.458 111.177 114.175 111.309 113.942 111.478C113.642 111.694 113.419 111.96 113.874 112.033C113.957 111.991 114.038 111.949 114.122 111.906C114.201 111.865 114.278 111.826 114.358 111.786C113.945 111.17 114.645 111.586 114.686 111.588C114.889 111.584 115.055 111.337 115.189 111.297C115.304 111.263 115.415 111.361 115.493 111.33C115.757 111.222 116.182 111.076 116.15 110.771C115.934 110.834 115.717 110.904 115.5 110.989C115.272 111.078 114.964 110.887 114.673 111.418C114.551 111.42 114.506 111.195 114.488 111.188ZM139.733 107.497C139.732 107.682 139.947 107.719 140.122 107.693L140.109 107.693C140.215 107.679 140.304 107.639 140.305 107.592C140.305 107.532 140.161 107.527 140.107 107.509C140.108 107.507 140.101 107.504 140.097 107.5C140.097 107.5 140.097 107.5 140.097 107.5C140.085 107.489 140.14 107.372 140.047 107.343C139.94 107.394 139.835 107.446 139.733 107.497ZM101.108 117.804C100.944 117.705 99.4906 118.802 99.4931 118.902C99.4942 118.928 99.5537 118.977 99.5737 119.016C99.7842 118.574 100.44 118.457 100.779 118.244C100.874 118.184 100.778 118.104 100.782 118.099C100.782 118.099 100.783 118.099 100.783 118.099C100.835 118.062 101.236 118.141 101.108 117.804ZM111.613 112.616C111.702 112.629 111.793 112.641 111.882 112.655C111.863 112.561 111.844 112.467 111.826 112.374C111.826 112.374 111.825 112.374 111.825 112.374C111.754 112.455 111.683 112.536 111.613 112.616ZM109.008 113.369C109.049 113.423 109.091 113.477 109.133 113.531C109.319 113.468 109.505 113.403 109.69 113.337C109.686 113.379 109.681 113.421 109.677 113.462C109.99 113.442 110.016 113.181 110.174 113.151C110.174 113.151 110.174 113.151 110.174 113.151C110.191 113.148 110.263 113.267 110.323 113.246C110.461 113.2 110.864 113.085 110.856 112.939C110.838 112.627 110.125 113.081 109.975 113.127C109.908 113.148 109.783 113.07 109.743 113.083C109.699 113.099 109.701 113.273 109.593 113.311C109.561 113.323 109.146 113.284 109.008 113.369ZM105.914 114.865C106.031 114.974 106.083 114.792 106.135 114.795C106.147 114.796 106.122 114.944 106.231 114.935C106.222 114.846 106.213 114.757 106.205 114.668C106.108 114.733 106.011 114.798 105.914 114.865ZM140.712 107.335C140.694 107.303 140.38 107.318 140.363 107.339C140.176 107.611 140.831 107.575 140.712 107.335ZM148.715 106.988C148.568 106.595 150.302 106.979 150.468 106.958C150.46 107.205 150.049 106.957 150.264 107.296C150.06 107.11 149.489 107.21 149.356 107.156C149.274 107.123 149.253 106.91 149.241 106.903C149.191 106.879 148.769 107.126 148.715 106.988ZM151.899 107.125C151.734 107.078 151.57 107.031 151.406 106.985C151.599 106.956 151.793 106.928 151.988 106.9C151.958 106.975 151.929 107.05 151.899 107.125ZM152.106 107.012C152.1 106.773 152.66 106.955 152.806 106.9C152.642 107.307 152.363 106.923 152.106 107.012ZM142.811 106.7C142.557 106.543 142.448 107.274 142.758 106.954C142.768 106.943 142.822 106.708 142.811 106.7ZM112.918 110.669C112.876 110.682 112.28 110.678 112.296 110.799C112.351 111.182 112.622 110.903 112.788 110.986C113.056 111.121 112.868 111.406 113.249 111.094C113.26 111.171 113.272 111.247 113.283 111.324C113.548 111.239 113.262 110.796 113.282 110.716C113.289 110.691 113.465 110.664 113.481 110.621C113.507 110.552 113.517 110.501 113.516 110.465C113.515 110.436 113.506 110.416 113.491 110.405C113.378 110.321 112.948 110.659 112.918 110.669ZM136.429 106.815C135.903 106.622 136.143 106.932 135.615 106.942C135.606 107.107 136.372 106.961 136.429 106.815ZM117.832 109.302C117.325 109.492 116.835 109.404 116.435 109.826C116.59 110.233 117.986 109.373 117.832 109.302ZM95.3088 120.406C96.0935 120.071 96.8341 119.591 97.6159 119.156C98.8126 118.491 99.9085 117.545 101.047 116.776C101.247 116.64 101.363 116.775 101.426 116.711C101.467 116.669 101.38 116.555 101.443 116.513C102.086 116.081 102.727 115.656 103.368 115.246C105.006 114.199 106.738 113.4 108.49 112.787C108.51 112.78 108.529 112.773 108.549 112.766C108.701 112.714 109.552 112.701 109.533 112.21C109.517 111.839 109.098 112.305 109.009 112.337C108.942 112.361 108.878 112.21 108.835 112.227C108.788 112.245 108.868 112.334 108.815 112.357C108.677 112.417 108.525 112.461 108.381 112.506C108.287 112.536 108.195 112.567 108.113 112.603C106.457 113.324 104.792 114.029 103.201 114.966C102.83 115.185 102.459 115.409 102.091 115.638C101.861 115.781 101.837 115.641 101.825 115.648C101.826 115.648 101.826 115.649 101.826 115.649C100.583 116.42 99.3983 117.637 98.1083 118.403C97.8668 118.542 97.6261 118.678 97.3854 118.809C96.624 119.233 95.938 119.762 95.3104 120.27C95.3099 120.315 95.3089 120.361 95.3088 120.406ZM114.151 110.658C113.874 110.292 113.97 110.632 113.618 110.708C113.577 110.717 113.529 110.723 113.474 110.723C113.471 110.816 113.469 110.908 113.465 111.002C113.541 110.963 113.616 110.925 113.693 110.886C113.846 110.808 113.998 110.733 114.152 110.657C114.152 110.658 114.152 110.658 114.151 110.658ZM111.162 111.728C110.823 111.144 110.031 111.999 109.542 112.062C109.59 112.407 110.173 112 110.337 111.968C110.419 111.952 110.96 112.097 111.193 111.789C111.183 111.768 111.172 111.748 111.162 111.728ZM146.902 106.007C146.823 106.027 146.745 106.047 146.667 106.066C146.863 106.14 147.058 106.214 147.252 106.288C146.944 106.24 146.629 106.193 146.32 106.146C146.379 106.007 146.435 105.868 146.493 105.729C146.628 105.822 146.764 105.914 146.902 106.007ZM145.893 106.081C146.435 106.027 145.87 106.401 145.734 106.236C145.651 106.137 145.839 106.087 145.893 106.081ZM144.475 105.847C144.732 105.602 145.24 105.583 145.061 106.071C144.786 105.844 144.608 106.035 144.211 105.905C144.269 105.811 144.326 105.718 144.383 105.624C144.384 105.624 144.384 105.624 144.384 105.624C144.414 105.698 144.445 105.773 144.475 105.847ZM146.14 105.786C146.497 106.065 145.466 105.972 145.79 105.787C145.805 105.778 146.125 105.775 146.14 105.786ZM96.8799 118.42C96.9122 118.521 97.0286 118.483 97.134 118.431C97.184 118.408 97.2303 118.38 97.2587 118.365C97.6007 118.193 97.9675 117.853 98.3135 117.635C98.2581 117.61 98.2028 117.585 98.1476 117.56C97.7779 117.817 97.4131 118.067 97.0501 118.305C96.9928 118.343 96.9363 118.381 96.8799 118.42ZM99.3671 116.893C99.6011 116.729 99.837 116.565 100.075 116.402C100.097 116.387 100.124 116.202 100.028 116.228C99.8047 116.449 99.5846 116.671 99.3671 116.893ZM115.553 109.133C115.307 109.119 115.797 108.48 115.915 108.958C115.794 109.016 115.673 109.074 115.553 109.133ZM117.54 108.362C117.412 108.441 117.284 108.522 117.158 108.603C117.143 108.548 117.129 108.494 117.114 108.44C117.256 108.413 117.398 108.387 117.54 108.362ZM95.8068 119.113C96.053 119.154 96.3292 118.887 96.5293 118.742C96.2923 118.712 96.0291 119.029 95.8068 119.113ZM112.344 110.165C112.412 110.279 111.602 110.588 111.787 110.258C111.972 110.227 112.159 110.195 112.344 110.165ZM110.654 110.677C110.813 110.578 110.962 110.563 111.008 110.767C110.914 110.798 110.822 110.828 110.728 110.859C110.704 110.798 110.679 110.737 110.654 110.677ZM143.506 105.459C143.194 105.48 142.881 105.5 142.571 105.521C142.582 105.464 142.593 105.408 142.605 105.351C142.903 105.331 143.206 105.311 143.506 105.291C143.506 105.347 143.506 105.403 143.506 105.459ZM95.3248 118.862C95.167 119.051 95.019 119.237 94.8773 119.421C95.0702 119.291 95.2683 119.16 95.4732 119.03C95.4237 118.974 95.3741 118.917 95.3246 118.861C95.3247 118.862 95.3247 118.862 95.3248 118.862ZM147.774 104.715C146.822 104.455 148.036 104.174 148.289 104.56C148.289 104.56 148.289 104.559 148.289 104.559C148.311 104.593 148.265 104.758 148.302 104.824C148.206 104.75 148.108 104.676 148.011 104.601C147.922 104.694 147.834 104.787 147.746 104.88C147.717 104.844 147.688 104.807 147.659 104.771C147.697 104.752 147.736 104.734 147.774 104.715ZM151.616 104.564C152.48 104.593 151.596 105.006 151.169 104.681C151.172 104.606 151.537 104.561 151.616 104.564ZM149.355 104.655C149.218 104.692 149.082 104.73 148.947 104.768C148.929 104.721 148.912 104.673 148.895 104.626C148.998 104.579 149.103 104.532 149.207 104.485C149.256 104.542 149.306 104.598 149.355 104.655ZM144.876 103.937C144.659 103.887 144.381 104.412 145.083 104.272C145.082 104.215 145.081 104.159 145.081 104.103C145.053 104.112 144.97 104.165 144.966 104.161C144.953 104.147 144.967 103.959 144.876 103.937ZM153.213 103.079C153.238 103.058 153.252 102.464 153.507 103.078C153.584 103.041 153.661 103.003 153.739 102.966C153.759 103.097 153.779 103.227 153.799 103.358C153.5 103.257 153.468 103.522 153.447 103.527C153.348 103.552 153.421 103.416 153.357 103.414C153.19 103.41 152.815 103.501 152.985 103.112C153.046 102.973 153.189 103.101 153.213 103.079ZM152.629 102.742C152.665 102.791 152.548 102.965 152.576 103.014C152.6 103.057 152.96 103.234 152.863 103.528C152.804 103.515 152.745 103.503 152.686 103.491C152.665 103.41 152.645 103.33 152.625 103.249C152.568 103.324 152.51 103.398 152.453 103.472C152.356 103.274 152.151 103.017 152.394 102.855C152.305 102.872 152.215 102.889 152.126 102.906C152.079 103.001 152.033 103.096 151.987 103.191C152.011 103.046 152.036 102.901 152.06 102.757C152.248 102.752 152.438 102.747 152.629 102.742ZM155.409 102.796C155.399 102.871 155.388 102.946 155.377 103.021C155.706 102.882 156.219 102.829 155.927 103.298C155.482 103.337 155.035 103.376 154.589 103.416C154.559 103.359 154.53 103.303 154.5 103.247C154.834 103.464 154.73 102.54 155.02 102.805C155.068 102.85 154.927 103.173 155.234 102.966C155.223 102.891 155.212 102.816 155.201 102.741C155.27 102.759 155.34 102.778 155.409 102.796ZM158.24 102.908C157.676 102.8 158.298 102.527 158.402 102.754C158.401 102.754 158.401 102.754 158.401 102.754C158.686 103.376 158.073 103.075 158.035 103.079C157.986 103.085 157.87 103.53 157.599 102.881C157.813 102.89 158.026 102.899 158.24 102.908ZM156.399 102.797C156.447 102.783 156.421 102.896 156.441 102.894C156.441 102.894 156.441 102.894 156.442 102.894C156.744 102.87 157.461 102.768 157.539 103.133C157.315 103.163 156.316 103.242 156.256 102.994C156.304 102.929 156.351 102.863 156.399 102.797ZM154.275 103.069C154.09 102.833 154.507 102.801 154.617 102.911C154.637 102.934 154.467 103.314 154.275 103.069ZM139.915 102.513C139.504 102.669 140.055 102.792 139.873 103.02C139.904 103.012 139.935 103.004 139.965 102.995C139.982 102.991 140.033 102.997 140.049 102.993C140.097 102.981 140.144 102.969 140.192 102.957C140.142 102.836 140.093 102.714 140.044 102.593C140.026 102.598 139.97 102.591 139.952 102.595C139.94 102.568 139.928 102.54 139.915 102.513ZM120.337 104.117C120.24 104.116 120.319 104.235 120.311 104.239C120.251 104.252 120.166 104.16 120.147 104.178C119.789 104.506 120.095 104.541 120.106 104.565C120.15 104.692 120.082 104.873 120.274 104.98C120.354 104.909 120.434 104.838 120.515 104.767C120.581 104.826 120.647 104.885 120.713 104.944C120.858 104.739 120.602 104.764 120.519 104.566C120.486 104.489 120.635 104.345 120.337 104.117ZM139.161 102.089C139.102 102.327 138.946 102.63 139.118 102.861C139.118 102.861 139.118 102.861 139.118 102.861C139.152 102.903 139.27 102.922 139.31 102.982C139.565 102.659 139.449 102.338 139.161 102.089ZM121.961 103.241C122.137 103.251 122.314 103.262 122.493 103.272C122.525 103.41 122.558 103.547 122.59 103.685C122.493 103.671 122.396 103.656 122.3 103.642C122.286 103.713 122.272 103.783 122.258 103.853C122.406 103.981 122.554 104.109 122.702 104.237C122.818 104.149 122.935 104.061 123.053 103.973C122.974 103.916 122.896 103.859 122.817 103.802C123.12 103.641 123.133 103.991 123.434 104.052C123.495 103.903 123.558 103.753 123.622 103.603C123.789 103.698 123.957 103.794 124.124 103.891C124.343 103.778 124.344 103.675 124.152 103.565C124.199 103.452 124.282 103.485 124.369 103.512C124.441 103.529 124.514 103.544 124.577 103.501C124.59 103.493 124.531 103.34 124.543 103.336C125.391 103.057 125.401 103.5 125.537 103.493C125.631 103.49 125.956 103.155 125.949 103.058C125.942 102.928 125.089 102.516 126.306 102.344C125.638 102.059 124.936 102.55 125.498 102.992C125.293 102.964 124.4 103.267 124.335 103.271C124.328 103.271 124.321 103.269 124.315 103.267C124.251 103.235 124.229 103.065 124.144 103.079C124.089 103.089 124.047 103.564 123.543 103.274C123.508 103.36 123.473 103.445 123.439 103.531C123.375 103.483 123.312 103.435 123.249 103.387C123.296 103.149 123.347 102.911 123.399 102.673C123.048 103.002 122.613 102.651 122.469 103.078C122.254 103.088 122.145 103.072 122.183 102.862C122.122 102.878 122.061 102.894 122.001 102.91C121.987 103.02 121.974 103.13 121.961 103.241ZM137.955 102.472C137.752 102.26 137.695 102.736 137.729 102.761C137.91 102.901 138.061 102.581 137.955 102.472ZM120.741 104.267C120.98 104.328 121.221 104.388 121.465 104.448C121.426 104.304 121.387 104.16 121.348 104.016C121.143 104.1 120.941 104.183 120.741 104.267ZM140.066 102.173C140.087 102.285 140.108 102.397 140.129 102.508C140.362 102.096 140.604 102.681 140.721 102.558C140.747 102.532 140.692 102.334 140.643 102.292C140.614 102.266 140.104 102.135 140.066 102.173ZM149.878 102.181C149.791 102.256 149.703 102.331 149.616 102.406C149.621 102.28 149.625 102.155 149.63 102.029C149.673 102.005 149.716 101.982 149.759 101.958C149.799 102.032 149.839 102.106 149.878 102.181ZM148.884 102.382C148.729 102.372 148.57 102.362 148.415 102.353C149.011 102.236 148.522 102.181 148.883 102.016C148.883 102.138 148.883 102.26 148.884 102.382ZM147.302 102.13C147.322 102.055 147.341 101.98 147.36 101.905C147.517 101.904 147.672 101.904 147.828 101.904C147.729 101.643 147.63 101.382 147.531 101.121C147.473 101.121 147.416 101.12 147.358 101.119C147.34 101.456 147.321 101.793 147.302 102.13ZM116.17 104.564C116.057 104.588 115.737 104.912 115.776 104.988C115.96 105.045 116.143 105.102 116.325 105.162C116.288 105.017 116.252 104.871 116.215 104.726C116.256 104.793 116.297 104.859 116.338 104.925C116.413 104.848 116.489 104.771 116.566 104.695C116.642 104.81 116.719 104.926 116.795 105.042C116.804 104.886 116.815 104.73 116.826 104.574C116.326 104.422 116.405 104.678 116.314 104.698C116.268 104.708 116.215 104.626 116.187 104.585C116.181 104.578 116.175 104.571 116.17 104.564ZM120.634 103.308C120.191 103.39 120.054 103.836 119.668 103.599C120.034 104.229 121.133 103.175 121.772 103.611C121.792 103.489 121.813 103.367 121.834 103.245C121.598 103.411 121.36 103.235 121.227 103.237C121.121 103.238 121.162 103.349 121.154 103.35C121.154 103.35 121.153 103.35 121.153 103.35C120.909 103.366 120.809 103.275 120.634 103.308ZM140.397 101.618C140.269 101.442 140.058 101.462 140.059 101.722C140.177 101.796 140.297 101.87 140.42 101.943C140.394 101.877 140.419 101.649 140.397 101.618ZM147.119 101.405C147.026 101.321 146.804 101.396 146.901 101.62C146.919 101.659 147.137 101.501 147.01 101.906C147.224 101.9 147.173 101.454 147.119 101.405ZM129.433 102.374C129.518 102.363 129.602 102.353 129.686 102.342C129.702 102.237 129.718 102.131 129.734 102.026C129.634 102.142 129.534 102.257 129.433 102.374ZM141.42 101.429C141.53 101.941 141.71 101.44 141.909 101.86C141.982 101.863 142.056 101.866 142.131 101.868C142.131 101.868 142.131 101.868 142.131 101.868C142.132 101.728 142.133 101.588 142.134 101.448C141.893 101.442 141.661 101.435 141.42 101.429ZM123.508 102.849C123.577 102.9 123.645 102.95 123.714 103.001C123.792 102.905 123.871 102.809 123.952 102.713C123.887 102.672 123.823 102.631 123.758 102.59C123.673 102.676 123.591 102.763 123.508 102.849ZM142.709 101.375C142.454 101.313 142.359 101.759 142.687 101.758C142.823 101.757 142.976 101.441 142.709 101.375ZM110.894 106.598C110.99 106.599 111.088 106.599 111.184 106.599C111.175 106.501 111.166 106.403 111.158 106.305C111.07 106.403 110.981 106.501 110.894 106.598ZM148.326 101.453C148.316 101.547 148.306 101.641 148.296 101.735C148.219 101.716 148.142 101.697 148.063 101.679C148.083 101.585 148.102 101.492 148.122 101.399C148.191 101.417 148.258 101.435 148.326 101.453ZM111.467 106.418C111.541 106.407 111.612 106.396 111.685 106.385C111.704 106.34 111.724 106.295 111.744 106.25C111.753 106.234 111.762 106.217 111.771 106.2C111.754 106.198 111.737 106.196 111.721 106.194C111.656 106.181 111.591 106.168 111.527 106.155C111.508 106.243 111.488 106.33 111.467 106.418ZM145.13 101.406C145.03 101.294 144.641 101.647 144.994 101.735C145.22 101.791 145.145 101.423 145.13 101.406ZM145.658 101.292C145.282 101.079 145.57 102.168 146.01 101.46C145.566 101.558 145.679 101.305 145.658 101.292ZM148.937 100.722C148.947 100.723 148.955 100.879 149.029 100.885C149.3 100.905 149.655 100.966 149.848 100.976C150.311 100.998 151.73 100.713 151.896 101.167C151.931 101.262 151.852 101.547 151.866 101.561C151.907 101.602 152.145 101.464 152.101 101.674C151.868 101.672 151.634 101.671 151.403 101.669C151.459 101.521 151.516 101.374 151.573 101.226C150.994 101.305 151.184 101.296 151.018 101.618C150.92 101.493 150.822 101.369 150.724 101.244C150.509 101.37 150.295 101.495 150.083 101.621C150.131 101.527 150.179 101.434 150.228 101.34C149.907 101.168 149.994 101.281 149.819 101.508C149.818 101.414 149.818 101.321 149.817 101.228C149.506 101.456 149.447 101.176 149.378 101.172C149.237 101.167 149.064 102.273 148.528 101.174C148.305 101.703 148.308 100.627 148.178 101.174C147.797 100.58 148.518 100.794 148.861 100.813C148.861 100.813 148.862 100.813 148.862 100.813C148.887 100.815 148.847 100.714 148.937 100.722ZM146.988 101.274C147.218 100.788 146.306 100.744 146.609 101.445C146.654 101.467 146.699 101.49 146.744 101.513C146.825 101.433 146.908 101.353 146.988 101.274C146.988 101.274 146.988 101.274 146.988 101.274ZM138.258 101.054C137.407 101.287 137.906 101.547 138.186 101.263C138.242 101.207 138.271 101.132 138.258 101.054ZM119.925 103.115C119.928 103.174 119.932 103.234 119.936 103.293C120.185 103.169 120.773 103.241 120.664 102.864C120.413 102.949 120.166 103.033 119.925 103.115ZM122.076 102.27C122.006 102.263 121.735 102.277 121.803 102.411C121.941 102.482 122.079 102.554 122.217 102.625C122.253 102.549 122.289 102.472 122.326 102.396C122.247 102.393 122.095 102.271 122.076 102.27Z" fill="#C8A85D"/>
</svg>
